<?xml version="1.0" encoding="utf-8"?>
<!-- Generator: Adobe Illustrator 16.0.0, SVG Export Plug-In . SVG Version: 6.00 Build 0)  -->
<!DOCTYPE svg PUBLIC "-//W3C//DTD SVG 1.1//EN" "http://www.w3.org/Graphics/SVG/1.1/DTD/svg11.dtd">
<svg version="1.1" id="Layer_1" xmlns="http://www.w3.org/2000/svg" xmlns:xlink="http://www.w3.org/1999/xlink" x="0px" y="0px"
	 width="486.791px" height="394.02px" viewBox="0 0 486.791 394.02" enable-background="new 0 0 486.791 394.02"
	 xml:space="preserve">
<path fill="#262528" d="M174.213,7.523l-37.625-7.339c-5.335-1.041-10.505,2.441-11.545,7.777l-2.078,10.65l56.945,11.107
	l2.077-10.65C183.029,13.733,179.548,8.563,174.213,7.523z"/>
<path fill="#262528" d="M440.719,69.533l-2.078,10.653l-56.947-11.108l2.078-10.653c1.041-5.337,6.21-8.819,11.546-7.778
	l37.623,7.338C438.279,59.027,441.76,64.196,440.719,69.533z"/>
<path fill="#4D4B4C" d="M487.52,195.824c-0.021,1.09-0.05,2.199-0.08,3.31c-0.011,0.239-0.011,0.479-0.021,0.72
	c-0.029,1.09-0.07,2.189-0.119,3.29c0,0.261-0.01,0.521-0.03,0.78c-0.04,1.109-0.091,2.22-0.14,3.34
	c-0.041,0.891-0.08,1.79-0.131,2.699c-0.1,1.971-0.22,3.971-0.35,5.98c-0.051,0.76-0.1,1.52-0.15,2.29
	c-0.07,0.99-0.14,1.979-0.209,2.979l-0.011,0.031c-0.2,2.75-0.431,5.52-0.681,8.319c-3.629,39.8-10.369,99.63-30.139,135.19
	c-0.141,0.239-0.291,0.479-0.42,0.729c-8.141,14.351-18.461,24.62-31.631,27.8c-3.811,0.61-7.5,0.83-11.05,0.7
	c-35.761-1.26-58.13-38.06-71.569-77.479c-8.381-24.57-13.291-50.141-15.811-68.771c-7.96,9.931-20.79,15.46-34.12,13.62
	c-0.69-0.09-1.39-0.21-2.09-0.34c-20.2-3.94-33.38-23.51-29.44-43.721l0.01-0.01c0.17-0.879-0.39-1.729-1.27-1.899l-18.109-3.54
	c-0.881-0.17-1.711,0.42-1.881,1.29l-0.01,0.021c-1.529,7.879-5.439,14.689-10.84,19.829c-8.45,8.05-20.551,12.01-32.87,9.61
	c-14.069-2.74-24.72-13.07-28.569-25.91c0,0.01,0,0.02-0.011,0.02c-0.63,1.101-1.29,2.23-1.96,3.381c-2.03,3.479-4.26,7.17-6.68,11
	c-0.67,1.06-1.36,2.14-2.06,3.229c-8.84,13.75-19.85,29.05-32.27,43c-24.24,27.21-53.87,49.25-83.38,44.561
	c-6.54-1.04-13.08-3.391-19.55-7.301c-38.19-27.409-12.5-120.979,3.9-175.09c1.62-5.329,3.3-10.55,5.01-15.61
	c4.31-12.689,8.83-24.35,13.09-34.14c5.14-11.8,9.89-20.87,13.43-25.72c11.47-15.75,27.72-27.45,46.19-33.37l0.94-4.8
	c1.86-9.53,11.09-15.75,20.63-13.89l1.15,0.22l56.95,11.11l5.271,1.03c5.05,0.98,8.33,5.87,7.351,10.91l-0.371,1.87l0.301,0.06
	l-1.811,9.26c0,0,26.75,24.51,24.391,53.81c75.52,14.729,104.199,20.33,104.199,20.33s12.6-30.25,43.391-37.649l3.439-12.801
	l-0.289-0.06l0.199-0.99c0.98-5.04,5.859-8.33,10.9-7.35l4.81,0.94l56.95,11.1l1.62,0.32c9.54,1.86,15.75,11.101,13.899,20.63
	l-0.939,4.801c1.29,1.08,2.55,2.189,3.77,3.34c12.93,12.05,22.2,27.67,26.5,44.939c0.541,2.16,1.01,4.93,1.42,8.2
	c0.23,1.899,0.44,3.979,0.621,6.21c0.139,1.67,0.26,3.43,0.359,5.279c0.18,3.07,0.311,6.361,0.391,9.851
	c0.02,0.53,0.029,1.07,0.039,1.62c0.02,1.13,0.04,2.279,0.04,3.45C487.66,186.644,487.63,191.134,487.52,195.824z"/>
<path fill="#4D4B4C" d="M486.287,221.217l-0.005,0.022c-13.474,24.176-37.495,43.233-58.89,47.267
	c-46.121,8.699-92.769-19.603-95.179-36.638c0,0,52.339,34.009,104.964,5.79c40.416-21.672,50.42-55.307,48.992-81.684
	c1.693,13.789,2.084,36.693,0.332,62.258C486.434,219.225,486.364,220.217,486.287,221.217z"/>
<path fill="#313033" d="M455.456,364.75c-0.138,0.243-0.282,0.487-0.419,0.735c-8.064,13.919-18.242,23.856-31.158,26.979
	c-3.818,0.605-7.504,0.829-11.055,0.701c19.146-43.084,21.137-90.063,20.605-114.436c-0.826,0.349-1.648,0.684-2.496,1.01
	c-48.727,18.673-87.795-2.599-102.182-12.464c-1.389-7.354-2.475-14.235-3.303-20.359c0,0,4.82-6.532,6.765-15.049
	c7.6,13.156,64.253,39.265,110.876,12.591c33.115-18.95,42.08-49.449,44.487-65.528c0.212,11.512-0.096,24.989-1.075,39.302
	c-0.067,0.992-0.138,1.984-0.215,2.984l-0.005,0.022c-0.202,2.75-0.427,5.524-0.685,8.321
	C481.967,269.368,475.232,329.197,455.456,364.75z"/>
<circle fill="#262528" cx="398.151" cy="166.038" r="69.105"/>
<path fill="#262528" d="M465.976,179.27c-7.307,37.459-43.594,61.901-81.053,54.596c-18.112-3.533-33.18-13.844-43.089-27.782
	c-10.589-14.892-15.284-33.926-11.511-53.272c7.307-37.459,43.6-61.906,81.059-54.6c13.939,2.719,26.068,9.451,35.436,18.76
	C462.633,132.68,470.564,155.744,465.976,179.27z"/>
<path fill="#313033" d="M458.374,170.011c-7.065,36.878-42.753,61.548-79.741,55.085c-1.678-0.294-3.328-0.645-4.957-1.051
	c-24.581-6.148-42.551-27.52-44.451-52.789c-0.488-6.502-0.057-13.19,1.399-19.906c7.83-36.08,43.126-59.779,79.487-53.374
	c1.669,0.294,3.313,0.646,4.929,1.051c24.536,6.161,42.47,27.499,44.382,52.726C459.875,157.723,459.554,163.85,458.374,170.011z"/>
<circle fill="#262528" cx="429.235" cy="175.537" r="18.992"/>
<circle fill="#262528" cx="394.661" cy="197.879" r="18.992"/>
<circle fill="#262528" cx="371.397" cy="163.69" r="18.992"/>
<circle fill="#262528" cx="407.157" cy="139.604" r="18.992"/>
<path fill="#313033" d="M196.389,126.687c-7.306,37.46-43.594,61.901-81.054,54.595c-20.206-3.94-36.627-16.315-46.314-32.754
	c-8.275-14.039-11.65-31.041-8.284-48.3c7.306-37.459,43.6-61.905,81.058-54.599c17.259,3.366,31.747,12.884,41.646,25.828
	C195.035,86.611,200.331,106.48,196.389,126.687z"/>
<path fill="#262528" d="M191.722,119.75c-7.293,37.395-43.666,61.894-81.061,54.599c-0.44-0.086-0.88-0.175-1.318-0.27
	c-33.662-7.235-55.208-40.093-48.601-73.884c0.064-0.331,0.132-0.663,0.201-0.994c7.659-36.392,43.219-60.344,79.822-53.766
	c2.692,0.483,5.316,1.116,7.869,1.888c27.819,8.406,46.299,35.12,44.197,64.106C192.633,114.188,192.265,116.966,191.722,119.75z"/>
<path fill="#313033" d="M182.921,124.061c-5.855,30.02-34.937,49.608-64.959,43.752c-16.193-3.158-29.354-13.076-37.118-26.249
	c-6.631-11.251-9.337-24.878-6.64-38.709c5.855-30.021,34.943-49.614,64.962-43.758c13.832,2.698,25.443,10.327,33.377,20.701
	C181.835,91.942,186.08,107.865,182.921,124.061z"/>
<path fill="#18181A" d="M171.865,106.936l-2.664,1.877l-14.367-2.803c-1.783-0.348-3.634,0.105-5.054,1.245l-9.768,7.837
	c-0.596,0.477-0.993,1.117-1.163,1.818c-0.201,0.803-0.102,1.68,0.33,2.453l4.144,7.701l2.604,4.152
	c0.905,1.091,2.164,1.857,3.575,2.133l16.905,3.297c2.498,0.487,4.923-1.146,5.41-3.648l3.566-18.281
	C175.919,111.961,171.865,106.936,171.865,106.936z"/>
<path fill="#18181A" d="M140.549,133.075l-7.835-9.773c-0.49-0.61-1.167-1.013-1.889-1.171c-0.782-0.181-1.634-0.076-2.382,0.338
	l-10.934,6.113c-1.586,0.887-2.699,2.428-3.046,4.211l-2.788,14.293l-2.962,2.031l2.158,3.904c0.574,1.365,2.235,2.479,3.803,2.785
	l18.279,3.564c2.504,0.488,4.924-1.141,5.412-3.644l3.434-17.603C142.146,136.342,141.692,134.496,140.549,133.075z"/>
<path fill="#18181A" d="M123.855,111.517l-6.112-10.935c-0.881-1.589-2.427-2.703-4.211-3.051l-1.381-0.27l1.976-1.965l-2.705,1.822
	l-14.795-2.886c-2.501-0.487-4.922,1.146-5.409,3.644l-2.886,14.795l-2.596,1.748l1.062,2.707c0.943,2.406,3.051,4.164,5.589,4.658
	l15.813,3.085c1.784,0.349,3.636-0.109,5.049-1.247l9.773-7.835c0.608-0.485,1.009-1.147,1.172-1.867
	C124.382,113.127,124.28,112.271,123.855,111.517z"/>
<circle fill="#262528" cx="202.532" cy="203.363" r="31.178"/>
<path fill="#4D4B4C" d="M223.643,207.479c-0.497,2.546-1.425,4.9-2.692,7.003c-4.538,7.507-13.422,11.768-22.535,9.989
	c-9.113-1.777-15.744-9.063-17.129-17.726c-0.385-2.425-0.359-4.956,0.137-7.501c2.273-11.654,13.568-19.262,25.227-16.988
	C218.31,184.531,225.917,195.824,223.643,207.479z"/>
<path fill="#4D4B4C" d="M220.951,214.481c-4.538,7.507-13.422,11.768-22.535,9.989c-9.113-1.777-15.744-9.063-17.129-17.726
	c4.537-7.501,13.42-11.761,22.533-9.983S219.566,205.825,220.951,214.481z"/>
<circle fill="#262528" cx="297.308" cy="221.849" r="31.178"/>
<path fill="#4D4B4C" d="M318.675,226.015c-0.496,2.546-1.425,4.9-2.693,7.003c-4.537,7.507-13.421,11.768-22.534,9.989
	c-9.114-1.777-15.745-9.063-17.129-17.726c-0.386-2.425-0.36-4.956,0.136-7.502c2.273-11.653,13.568-19.261,25.227-16.986
	C313.341,203.066,320.949,214.361,318.675,226.015z"/>
<path fill="#4D4B4C" d="M315.982,233.018c-4.537,7.507-13.421,11.768-22.534,9.989c-9.114-1.777-15.745-9.063-17.129-17.726
	c4.536-7.502,13.42-11.761,22.534-9.983C307.966,217.075,314.597,224.361,315.982,233.018z"/>
<path fill="#18181A" d="M138.997,134.633l-3.297,16.904c-0.488,2.502-2.908,4.131-5.412,3.643l-18.279-3.564
	c-2.504-0.488-4.134-2.908-3.646-5.41l3.297-16.904c0.348-1.785,1.462-3.324,3.047-4.213l10.936-6.112
	c0.746-0.413,1.597-0.519,2.381-0.337c0.721,0.158,1.398,0.561,1.889,1.17l7.835,9.774
	C138.891,131.003,139.345,132.848,138.997,134.633z"/>
<path fill="#18181A" d="M150.205,77.168l-3.297,16.904c-0.348,1.784-1.462,3.323-3.054,4.211l-10.934,6.112
	c-0.685,0.386-1.462,0.499-2.19,0.375c-0.794-0.128-1.544-0.544-2.08-1.208l-7.837-9.774c-1.135-1.419-1.589-3.264-1.241-5.048
	l3.297-16.904c0.488-2.503,2.909-4.138,5.413-3.649l18.279,3.565C149.064,72.24,150.693,74.665,150.205,77.168z"/>
<path fill="#4D4B4C" d="M150.205,77.168l-3.297,16.904c-0.348,1.784-1.462,3.323-3.054,4.211l-10.934,6.112
	c-0.685,0.386-1.462,0.499-2.19,0.375l6.784-34.783l9.047,1.765C149.064,72.24,150.693,74.665,150.205,77.168z"/>
<path fill="#18181A" d="M122.328,110.451c-0.162,0.72-0.563,1.381-1.17,1.867l-9.775,7.835c-1.413,1.136-3.264,1.595-5.049,1.247
	l-16.904-3.298c-2.502-0.487-4.13-2.912-3.642-5.415l3.565-18.281c0.487-2.496,2.907-4.131,5.409-3.644l16.904,3.298
	c1.785,0.348,3.33,1.462,4.211,3.053l6.114,10.934C122.415,108.802,122.518,109.657,122.328,110.451z"/>
<path fill="#4D4B4C" d="M122.328,110.451c-0.162,0.72-0.563,1.381-1.17,1.867l-9.775,7.835c-1.413,1.136-3.264,1.595-5.049,1.247
	l-16.904-3.298c-2.502-0.487-4.13-2.912-3.642-5.415l1.759-9.021L122.328,110.451z"/>
<path fill="#18181A" d="M172.782,110.679l-3.565,18.281c-0.488,2.503-2.915,4.137-5.411,3.649l-16.905-3.297
	c-1.785-0.348-3.329-1.469-4.215-3.054l-6.109-10.933c-0.432-0.774-0.53-1.65-0.328-2.453c0.17-0.701,0.566-1.342,1.161-1.818
	l9.77-7.837c1.418-1.142,3.269-1.593,5.054-1.245l16.905,3.297C171.634,105.757,173.269,108.183,172.782,110.679z"/>
<g>
	<circle fill="#DEE124" cx="403.368" cy="135.905" r="16.358"/>
	<circle fill="#A22379" cx="392.015" cy="194.108" r="16.359"/>
	<circle fill="#F15A25" cx="426.792" cy="170.684" r="16.359"/>
	<circle fill="#19BFD5" cx="368.588" cy="159.331" r="16.358"/>
</g>
<path fill="#262528" d="M250.121,123.009l-1.783,9.14c-0.271,1.393-1.623,2.305-3.016,2.033l-20.626-4.023
	c-1.398-0.272-2.304-1.625-2.032-3.018l1.783-9.14c0.271-1.394,1.619-2.306,3.018-2.032l20.625,4.023
	C249.482,120.264,250.392,121.615,250.121,123.009z"/>
<path fill="#262528" d="M308.233,134.344l-1.782,9.141c-0.271,1.392-1.625,2.303-3.023,2.03l-20.625-4.022
	c-1.393-0.271-2.303-1.625-2.031-3.018l1.782-9.141c0.272-1.393,1.624-2.303,3.017-2.031l20.625,4.022
	C307.593,131.598,308.505,132.949,308.233,134.344z"/>
<path fill="#FCE500" d="M269.587,162.657l-20.625-4.022c-1.393-0.271-2.305-1.623-2.033-3.019l1.783-9.139
	c0.271-1.396,1.625-2.305,3.018-2.032l20.625,4.022c1.396,0.272,2.307,1.623,2.035,3.019l-1.783,9.139
	C272.335,162.02,270.983,162.93,269.587,162.657z"/>
<path fill="#313033" d="M165.794,216.68v0.006c-0.002,0.006-0.01,0.014-0.014,0.02c-2.421,4.204-5.162,8.768-8.175,13.559
	c-0.097,0.15-0.194,0.306-0.293,0.456c-0.579,0.914-1.165,1.84-1.765,2.773c-8.99,13.981-20.206,29.555-32.878,43.683
	c-24.126,26.897-53.513,48.534-82.775,43.878c32.311-22.761,53.755-63.699,64.353-88.118c-15.493-3.79-32.304-11.565-48.074-26.292
	c-26.434-24.687-30.747-57.302-26.912-83.588c4.306-12.692,8.822-24.355,13.086-34.142c-4.034,14.484-9.362,48.404,15.82,80.466
	c33.181,42.239,95.495,39.335,107.481,30C165.646,199.38,163.323,206.449,165.794,216.68z"/>
<path fill="#313033" d="M367.33,70.104l-3.439,12.801c-30.791,7.399-43.391,37.649-43.391,37.649s-28.68-5.601-104.199-20.33
	c2.359-29.3-24.391-53.81-24.391-53.81l1.811-9.26l59.149,11.54l0.521-0.81l3.539-5.47c2.07-3.19,5.881-4.81,9.611-4.08l4.129,0.8
	l-1.199,6.15L292,49.674l1.2-6.14l4.12,0.8c3.73,0.73,6.65,3.66,7.37,7.4l1.22,6.39l0.189,0.95l60.771,11.85l0.171-0.88
	L367.33,70.104z"/>
<polygon fill="#262528" points="193.89,36.273 253.39,47.884 252.87,48.693 193.72,37.154 "/>
<polygon fill="#262528" points="367.041,70.043 366.87,70.924 306.099,59.074 305.91,58.124 "/>
<path fill="#4D4B4C" d="M24.073,178.167c0,0-22.333,73.957-5.238,117.579c10.294-45.056,28.17-80.727,28.17-80.727
	S31.948,203.423,24.073,178.167z"/>
<path fill="#4D4B4C" d="M348.865,290.841c0,0,5.647,59.837,50.219,89.992c-15.979-37.756-14.293-79.221-14.293-79.221
	S368.283,305.171,348.865,290.841z"/>
<path fill="#686768" d="M24.691,206.149c0,0-9.375,42.078-4.759,67.503c2.939-24.65,16.833-52.771,16.833-52.771
	S27.237,212.252,24.691,206.149z"/>
<path fill="#686768" d="M361.144,308.955c0,0,4.15,26.506,20.553,46.649c-4.281-20.039-6.83-41.715-6.83-41.715
	S369.478,312.558,361.144,308.955z"/>
<path fill="#4D4B4C" d="M171.057,119.521l-1.841,9.439c-0.488,2.503-2.915,4.137-5.411,3.649l-16.905-3.297
	c-1.785-0.348-3.329-1.469-4.215-3.054l-6.109-10.933c-0.432-0.774-0.53-1.65-0.328-2.453
	C141.986,113.947,161.06,117.531,171.057,119.521z"/>
<path fill="#4D4B4C" d="M138.997,134.633l-3.297,16.904c-0.488,2.502-2.908,4.131-5.412,3.643l-9.047-1.764l6.783-34.777
	c0.721,0.158,1.398,0.561,1.889,1.17l7.835,9.774C138.891,131.003,139.345,132.848,138.997,134.633z"/>
<path fill="#4D4B4C" d="M250.121,123.009l-0.758,3.89l-25.674-5.008l0.758-3.89c0.271-1.394,1.619-2.306,3.018-2.032l20.625,4.023
	C249.482,120.264,250.392,121.615,250.121,123.009z"/>
<path fill="#262528" d="M270.304,175.892l-1.783,9.141c-0.271,1.393-1.623,2.304-3.017,2.032l-20.627-4.023
	c-1.397-0.272-2.302-1.624-2.03-3.017l1.783-9.141c0.271-1.394,1.617-2.304,3.015-2.032l20.627,4.023
	C269.666,173.146,270.576,174.498,270.304,175.892z"/>
<path fill="#4D4B4C" d="M270.304,175.892l-0.76,3.89l-25.674-5.008l0.76-3.89c0.271-1.394,1.617-2.304,3.015-2.032l20.627,4.023
	C269.666,173.146,270.576,174.498,270.304,175.892z"/>
<path fill="#4D4B4C" d="M308.233,134.344l-0.759,3.889l-25.68-5.008l0.759-3.891c0.272-1.393,1.624-2.303,3.017-2.031l20.625,4.022
	C307.593,131.598,308.505,132.949,308.233,134.344z"/>
<path fill="#262528" d="M293.75,40.684l-0.55,2.85l-1.2,6.14l-22.529-4.39l1.199-6.15l0.551-2.84c0.689-3.54,4.119-5.85,7.649-5.16
	l9.72,1.9C292.13,33.724,294.44,37.154,293.75,40.684z"/>
<path fill="none" d="M403.368,152.264"/>
<path fill="none" d="M403.368,119.548"/>
<path fill="#313033" d="M406.499,119.85"/>
<g opacity="0.2">
	<path d="M419.425,139.038c-1.729,8.87-10.32,14.649-19.189,12.92l6.26-32.11C415.366,121.578,421.156,130.168,419.425,139.038z"/>
	<path d="M408.076,197.238c-1.73,8.87-10.32,14.66-19.19,12.93l6.26-32.12C404.015,179.778,409.795,188.378,408.076,197.238z"/>
	<path d="M442.845,173.818c-1.729,8.869-10.32,14.649-19.189,12.92l6.27-32.11C438.795,156.358,444.576,164.948,442.845,173.818z"/>
	<path d="M384.645,162.458c-1.729,8.87-10.319,14.66-19.189,12.93l6.26-32.109C380.585,145.008,386.375,153.598,384.645,162.458z"/>
	<line x1="406.496" y1="119.848" x2="400.236" y2="151.958"/>
	<line x1="429.925" y1="154.628" x2="423.656" y2="186.738"/>
	<line x1="395.145" y1="178.048" x2="388.885" y2="210.168"/>
	<line x1="371.715" y1="143.278" x2="365.456" y2="175.388"/>
</g>
<path opacity="0.2" d="M274.387,151.488l-1.78,9.14c-0.27,1.39-1.619,2.3-3.02,2.03l-10.55-2.061l3-14.14l10.319,2.01
	C273.757,148.738,274.667,150.088,274.387,151.488z"/>
</svg>
