<?xml version="1.0" encoding="utf-8"?>
<!-- Generator: Adobe Illustrator 16.0.0, SVG Export Plug-In . SVG Version: 6.00 Build 0)  -->
<!DOCTYPE svg PUBLIC "-//W3C//DTD SVG 1.1//EN" "http://www.w3.org/Graphics/SVG/1.1/DTD/svg11.dtd">
<svg version="1.1" id="Layer_1" xmlns="http://www.w3.org/2000/svg" xmlns:xlink="http://www.w3.org/1999/xlink" x="0px" y="0px"
	 width="194.589px" height="113.625px" viewBox="0 0 194.589 113.625" enable-background="new 0 0 194.589 113.625"
	 xml:space="preserve">
<g>
	
		<linearGradient id="SVGID_1_" gradientUnits="userSpaceOnUse" x1="164.4097" y1="240.4355" x2="194.2295" y2="217.8549" gradientTransform="matrix(1 0.0011 -0.0011 1 2.5823 -140.2365)">
		<stop  offset="0" style="stop-color:#EE3929"/>
		<stop  offset="0.1627" style="stop-color:#EF662C"/>
		<stop  offset="0.4676" style="stop-color:#F29F31"/>
		<stop  offset="0.7184" style="stop-color:#F5C833"/>
		<stop  offset="0.9024" style="stop-color:#F8E133"/>
		<stop  offset="1" style="stop-color:#F9ED32"/>
	</linearGradient>
	<polygon fill="url(#SVGID_1_)" points="153.599,107.398 165.092,82.563 180.75,72.846 193.375,65.931 182.629,107.429 
		162.725,108.674 	"/>
	
		<linearGradient id="SVGID_2_" gradientUnits="userSpaceOnUse" x1="130.8745" y1="166.0381" x2="153.6929" y2="166.0381" gradientTransform="matrix(1 0.0011 -0.0011 1 2.5823 -140.2365)">
		<stop  offset="0" style="stop-color:#EE3929"/>
		<stop  offset="0.1627" style="stop-color:#EF662C"/>
		<stop  offset="0.4676" style="stop-color:#F29F31"/>
		<stop  offset="0.7184" style="stop-color:#F5C833"/>
		<stop  offset="0.9024" style="stop-color:#F8E133"/>
		<stop  offset="1" style="stop-color:#F9ED32"/>
	</linearGradient>
	<polygon fill="url(#SVGID_2_)" points="133.29,18.726 142.238,0 156.098,28.025 147.617,51.91 134.79,25.389 	"/>
	<polygon fill="#603913" points="0.011,97.511 93.05,81.501 94.105,97.61 6.039,113.625 	"/>
	<polygon fill="#3C2415" points="102.349,106.477 144.302,18.736 159.521,27.613 118.053,109.715 	"/>
	<polygon fill="#A97C50" points="144.302,18.736 149.117,28.912 159.521,27.613 155.839,18.748 	"/>
	<polyline fill="#3C2415" points="102.349,106.477 108.76,111.555 118.053,109.715 	"/>
	<polygon fill="#603913" points="93.05,81.501 96.704,89.798 94.105,97.61 	"/>
	<polygon fill="#A97C50" points="0.011,97.511 0,107.685 6.039,113.625 8.9,104.472 	"/>
	<g>
		<polygon fill="#3C2415" points="14.593,81.419 11.354,97.522 84.63,106.458 84.647,90.351 		"/>
		<polygon fill="#A97C50" points="11.354,97.522 18.848,91.327 14.593,81.419 8.918,87.826 		"/>
		<polygon fill="#3C2415" points="84.63,106.458 88.182,98.687 84.647,90.351 		"/>
	</g>
	<polygon fill="#603913" points="139.099,109.736 142.942,28.906 150.306,26.121 156.094,30.529 153.597,109.752 	"/>
	<polygon fill="#A97C50" points="139.099,109.736 146.489,103.542 153.597,109.752 146.344,113.771 	"/>
	<polyline fill="#3C2415" points="118.375,96.26 175.454,62.519 180.758,64.293 180.75,72.846 118.358,111.565 	"/>
	<polygon fill="#A97C50" points="118.375,96.26 122.613,103.638 118.358,111.565 114.945,103.91 	"/>
	
		<linearGradient id="SVGID_3_" gradientUnits="userSpaceOnUse" x1="121.7456" y1="169.0371" x2="134.186" y2="169.0371" gradientTransform="matrix(1 0.0011 -0.0011 1 2.5823 -140.2365)">
		<stop  offset="0" style="stop-color:#EE3929"/>
		<stop  offset="0.1627" style="stop-color:#EF662C"/>
		<stop  offset="0.4676" style="stop-color:#F29F31"/>
		<stop  offset="0.7184" style="stop-color:#F5C833"/>
		<stop  offset="0.9024" style="stop-color:#F8E133"/>
		<stop  offset="1" style="stop-color:#F9ED32"/>
	</linearGradient>
	<polygon fill="url(#SVGID_3_)" points="128.149,52.519 124.149,30.407 131,5.357 136.584,34.875 	"/>
	<polygon fill="#603913" points="140.624,22.549 194.589,103.055 191.542,108.166 183.845,109.245 133.273,33.459 	"/>
	<polygon fill="#A97C50" points="133.273,33.459 139.72,31.139 140.624,22.549 133.283,26.12 	"/>
	
		<linearGradient id="SVGID_4_" gradientUnits="userSpaceOnUse" x1="112.6196" y1="211.5781" x2="138.9214" y2="211.5781" gradientTransform="matrix(1 0.0011 -0.0011 1 2.5823 -140.2365)">
		<stop  offset="0" style="stop-color:#EE3929"/>
		<stop  offset="0.1627" style="stop-color:#EF662C"/>
		<stop  offset="0.4676" style="stop-color:#F29F31"/>
		<stop  offset="0.7184" style="stop-color:#F5C833"/>
		<stop  offset="0.9024" style="stop-color:#F8E133"/>
		<stop  offset="1" style="stop-color:#F9ED32"/>
	</linearGradient>
	<polygon fill="url(#SVGID_4_)" points="128.372,90.351 114.998,52.591 141.289,63.713 140.36,83.264 	"/>
	
		<linearGradient id="SVGID_5_" gradientUnits="userSpaceOnUse" x1="145.2368" y1="184.8105" x2="166.6704" y2="184.8105" gradientTransform="matrix(1 0.0011 -0.0011 1 2.5823 -140.2365)">
		<stop  offset="0" style="stop-color:#EE3929"/>
		<stop  offset="0.1627" style="stop-color:#EF662C"/>
		<stop  offset="0.4676" style="stop-color:#F29F31"/>
		<stop  offset="0.7184" style="stop-color:#F5C833"/>
		<stop  offset="0.9024" style="stop-color:#F8E133"/>
		<stop  offset="1" style="stop-color:#F9ED32"/>
	</linearGradient>
	<polygon fill="url(#SVGID_5_)" points="154.699,74.786 147.617,51.91 160.855,14.695 169.055,47.813 159.475,71.961 	"/>
	
		<linearGradient id="SVGID_6_" gradientUnits="userSpaceOnUse" x1="128.5698" y1="187.7852" x2="139.8032" y2="187.7852" gradientTransform="matrix(1 0.0011 -0.0011 1 2.5823 -140.2365)">
		<stop  offset="0" style="stop-color:#EE3929"/>
		<stop  offset="0.1627" style="stop-color:#EF662C"/>
		<stop  offset="0.4676" style="stop-color:#F29F31"/>
		<stop  offset="0.7184" style="stop-color:#F5C833"/>
		<stop  offset="0.9024" style="stop-color:#F8E133"/>
		<stop  offset="1" style="stop-color:#F9ED32"/>
	</linearGradient>
	<polygon fill="url(#SVGID_6_)" points="141.578,57.634 130.965,37.753 142.191,44.725 	"/>
	
		<linearGradient id="SVGID_7_" gradientUnits="userSpaceOnUse" x1="163.6821" y1="197.3652" x2="175.0815" y2="197.3652" gradientTransform="matrix(1 0.0011 -0.0011 1 2.5823 -140.2365)">
		<stop  offset="0" style="stop-color:#EE3929"/>
		<stop  offset="0.1627" style="stop-color:#EF662C"/>
		<stop  offset="0.4676" style="stop-color:#F29F31"/>
		<stop  offset="0.7184" style="stop-color:#F5C833"/>
		<stop  offset="0.9024" style="stop-color:#F8E133"/>
		<stop  offset="1" style="stop-color:#F9ED32"/>
	</linearGradient>
	<polygon fill="url(#SVGID_7_)" points="166.053,60.484 177.465,48.719 175.454,62.519 169.719,65.906 	"/>
	
		<linearGradient id="SVGID_8_" gradientUnits="userSpaceOnUse" x1="128.9888" y1="240.5039" x2="137.3091" y2="240.5039" gradientTransform="matrix(1 0.0011 -0.0011 1 2.5823 -140.2365)">
		<stop  offset="0" style="stop-color:#EE3929"/>
		<stop  offset="0.1627" style="stop-color:#EF662C"/>
		<stop  offset="0.4676" style="stop-color:#F29F31"/>
		<stop  offset="0.7184" style="stop-color:#F5C833"/>
		<stop  offset="0.9024" style="stop-color:#F8E133"/>
		<stop  offset="1" style="stop-color:#F9ED32"/>
	</linearGradient>
	<polygon fill="url(#SVGID_8_)" points="139.64,98.358 133.213,91.089 131.314,103.526 139.099,109.736 	"/>
	
		<linearGradient id="SVGID_9_" gradientUnits="userSpaceOnUse" x1="151.2778" y1="239.96" x2="215.9784" y2="239.96" gradientTransform="matrix(1 0.0011 -0.0011 1 2.5823 -140.2365)">
		<stop  offset="0" style="stop-color:#EE3929"/>
		<stop  offset="0.1627" style="stop-color:#EF662C"/>
		<stop  offset="0.4676" style="stop-color:#F29F31"/>
		<stop  offset="0.7184" style="stop-color:#F5C833"/>
		<stop  offset="0.9024" style="stop-color:#F8E133"/>
		<stop  offset="1" style="stop-color:#F9ED32"/>
	</linearGradient>
	<polygon fill="url(#SVGID_9_)" points="153.599,107.398 173.48,93.713 180.729,91.139 162.725,108.674 	"/>
	
		<linearGradient id="SVGID_10_" gradientUnits="userSpaceOnUse" x1="151.2778" y1="230.627" x2="163.2681" y2="230.627" gradientTransform="matrix(1 0.0011 -0.0011 1 2.5823 -140.2365)">
		<stop  offset="0" style="stop-color:#EE3929"/>
		<stop  offset="0.1627" style="stop-color:#EF662C"/>
		<stop  offset="0.4676" style="stop-color:#F29F31"/>
		<stop  offset="0.7184" style="stop-color:#F5C833"/>
		<stop  offset="0.9024" style="stop-color:#F8E133"/>
		<stop  offset="1" style="stop-color:#F9ED32"/>
	</linearGradient>
	<polygon fill="url(#SVGID_10_)" points="153.599,107.398 154.242,89.299 165.625,73.724 163.898,102.396 	"/>
	
		<linearGradient id="SVGID_11_" gradientUnits="userSpaceOnUse" x1="152.3433" y1="200.5146" x2="174.3591" y2="200.5146" gradientTransform="matrix(1 0.0011 -0.0011 1 2.5823 -140.2365)">
		<stop  offset="0" style="stop-color:#EE3929"/>
		<stop  offset="0.1627" style="stop-color:#EF662C"/>
		<stop  offset="0.4676" style="stop-color:#F29F31"/>
		<stop  offset="0.7184" style="stop-color:#F5C833"/>
		<stop  offset="0.9024" style="stop-color:#F8E133"/>
		<stop  offset="1" style="stop-color:#F9ED32"/>
	</linearGradient>
	<polyline fill="url(#SVGID_11_)" points="154.699,74.786 158.332,54.961 163.955,46.108 163.391,69.555 159.475,71.961 	"/>
	
		<linearGradient id="SVGID_12_" gradientUnits="userSpaceOnUse" x1="128.9888" y1="207.3115" x2="152.6919" y2="207.3115" gradientTransform="matrix(1 0.0011 -0.0011 1 2.5823 -140.2365)">
		<stop  offset="0" style="stop-color:#EE3929"/>
		<stop  offset="0.1627" style="stop-color:#EF662C"/>
		<stop  offset="0.4676" style="stop-color:#F29F31"/>
		<stop  offset="0.7184" style="stop-color:#F5C833"/>
		<stop  offset="0.9024" style="stop-color:#F8E133"/>
		<stop  offset="1" style="stop-color:#F9ED32"/>
	</linearGradient>
	<polygon fill="url(#SVGID_12_)" points="140.36,83.264 131.361,59.513 133.256,51.178 141.289,63.713 	"/>
</g>
</svg>
