<?xml version="1.0" encoding="utf-8"?>
<!-- Generator: Adobe Illustrator 16.0.0, SVG Export Plug-In . SVG Version: 6.00 Build 0)  -->
<!DOCTYPE svg PUBLIC "-//W3C//DTD SVG 1.1//EN" "http://www.w3.org/Graphics/SVG/1.1/DTD/svg11.dtd">
<svg version="1.1" id="Layer_1" xmlns="http://www.w3.org/2000/svg" xmlns:xlink="http://www.w3.org/1999/xlink" x="0px" y="0px"
	 width="340px" height="250px" viewBox="0 0 340 250" enable-background="new 0 0 340 250" xml:space="preserve">
<g>
	<path fill="#FFFFFF" d="M7.696,35.41H0.227l3.15-22.472h7.469L7.696,35.41z M11.041,11.671H3.54l0.552-3.702h7.468L11.041,11.671z"
		/>
	<path fill="#FFFFFF" d="M31.846,35.41h-7.469l2.793-19.972h-4.969L19.376,35.41h-7.469l3.15-22.472h19.939L31.846,35.41z"/>
	<path fill="#FFFFFF" d="M55.538,35.41H35.599l3.15-22.472h19.939l-1.202,8.735h-7.501l0.877-6.235h-4.969l-2.468,17.471h4.969
		l0.876-6.235h7.501L55.538,35.41z"/>
	<path fill="#FFFFFF" d="M79.1,35.41H59.161l2.436-17.471h11.236l-0.357,2.5h-3.735l-1.753,12.47h4.969l2.468-17.471h-12.47
		l0.357-2.5H82.25L79.1,35.41z"/>
	<path fill="#FFFFFF" d="M102.792,35.41h-7.469l2.793-19.972h-4.968L90.322,35.41h-7.469l3.15-22.472h19.939L102.792,35.41z"/>
	<path fill="#FFFFFF" d="M126.126,35.41h-19.939l3.15-22.472h11.235l-0.356,2.5h-3.735l-2.468,17.471h5l3.507-24.94h7.469
		L126.126,35.41z"/>
	<path fill="#FFFFFF" d="M150.89,30.409h-11.236l0.357-2.5h3.734l1.754-12.47h-4.968l-2.468,17.471h12.47l-0.357,2.5h-19.939
		l3.15-22.472h19.939L150.89,30.409z"/>
	<path fill="#FFFFFF" d="M173.77,35.41h-19.939l1.202-8.735h7.502l-0.877,6.235h5.001l1.039-7.469h-12.47l1.754-12.502h19.939
		l-1.201,8.735h-7.502l0.876-6.235h-5l-1.039,7.501h12.47L173.77,35.41z"/>
	<path fill="#FFFFFF" d="M197.396,35.41h-19.939l3.15-22.472h19.939l-1.202,8.735h-7.501l0.877-6.235h-4.969l-2.468,17.471h4.968
		l0.877-6.235h7.502L197.396,35.41z"/>
	<path fill="#FFFFFF" d="M221.673,30.409h-11.235l0.356-2.5h3.735l1.753-12.47h-4.968l-2.469,17.471h12.47l-0.357,2.5H201.02
		l3.149-22.472h19.939L221.673,30.409z"/>
	<path fill="#FFFFFF" d="M244.553,35.41h-7.469l2.793-19.972h-4.969l-2.826,19.972h-7.469l3.149-22.472h19.939L244.553,35.41z"/>
	<path fill="#FFFFFF" d="M268.245,35.41h-19.939l3.149-22.472h19.939l-1.201,8.735h-7.501l0.876-6.235h-4.968l-2.469,17.471h4.969
		l0.877-6.235h7.501L268.245,35.41z"/>
	<path fill="#FFFFFF" d="M292.521,30.409h-11.236l0.356-2.5h3.735l1.754-12.47h-4.969l-2.468,17.471h12.47l-0.357,2.5h-19.939
		l3.15-22.472h19.939L292.521,30.409z"/>
	<path fill="#00AEEF" d="M302.963,11.706c-0.747,2.728-2.144,6.202-3.053,7.696l-1.818,0.228c0.715-1.916,1.559-5.293,1.916-7.631
		L302.963,11.706z"/>
	<path fill="#00AEEF" d="M312.152,35.41h-7.502l2.826-19.972h-2.501l0.356-2.5h9.97L312.152,35.41z"/>
	<path fill="#00AEEF" d="M334.884,35.41h-19.938l1.202-8.735h7.501l-0.877,6.235h4.969l1.071-7.469h-12.471l1.754-12.502h19.939
		L334.884,35.41z M329.168,22.939l1.04-7.501h-4.968l-1.072,7.501H329.168z"/>
	<path fill="#00AEEF" d="M15.766,87.597H1l2.862-20.321h5.531L6.796,85.745H10.5l1.804-12.938H9.537l0.265-1.852h8.321
		L15.766,87.597z"/>
	<path fill="#00AEEF" d="M34.308,77.424h-5.556l0.649-4.617h-3.68l-2.092,14.79h-5.531l2.333-16.642h14.766L34.308,77.424z"/>
	<path fill="#00AEEF" d="M39.093,87.597h-5.531l2.332-16.642h5.532L39.093,87.597z M41.57,70.017h-5.556l0.409-2.741h5.531
		L41.57,70.017z"/>
	<path fill="#00AEEF" d="M56.191,87.597h-5.531l2.068-14.79h-3.68l-2.092,14.79h-5.531l2.333-16.642h14.766L56.191,87.597z"/>
	<path fill="#00AEEF" d="M72.761,91.3H57.995l0.265-1.852h9.235l2.333-16.642h-3.704L64.32,85.745h2.765l-0.264,1.852H58.5
		l2.358-16.642h14.765L72.761,91.3z"/>
	<path fill="#00AEEF" d="M101.619,87.597H86.853l2.862-20.321h5.531l-0.529,3.68h9.259l-0.265,1.852h-9.234l-1.828,12.938h3.68
		l0.648-4.617h5.556L101.619,87.597z"/>
	<path fill="#00AEEF" d="M117.586,87.597h-5.531l2.092-14.79h-3.703l-2.093,14.79h-5.531l2.862-20.321h5.531l-0.505,3.68h9.235
		L117.586,87.597z"/>
	<path fill="#00AEEF" d="M135.214,83.893h-8.321l0.265-1.852h2.765l1.299-9.234h-3.68l-1.828,12.938h9.235l-0.265,1.852h-14.766
		l2.333-16.642h14.766L135.214,83.893z"/>
	<path fill="#00AEEF" d="M163.207,87.597H148.44l2.862-20.321h5.531l-0.529,3.68h9.259l-0.266,1.852h-9.233l-1.828,12.938h3.679
		l0.649-4.617h5.555L163.207,87.597z"/>
	<path fill="#00AEEF" d="M179.439,87.597h-14.766l2.332-16.642h14.766L179.439,87.597z M174.148,85.745l1.827-12.938h-3.679
		l-1.828,12.938H174.148z"/>
	<path fill="#00AEEF" d="M196.272,87.597h-5.53l2.068-14.79h-3.681l-2.091,14.79h-5.532l2.333-16.642h14.767L196.272,87.597z"/>
	<path fill="#00AEEF" d="M213.636,83.893h-8.32l0.264-1.852h2.766l1.299-9.234h-3.679l-1.829,12.938h9.234l-0.264,1.852H198.34
		l2.334-16.642h14.767L213.636,83.893z"/>
	<path fill="#00AEEF" d="M7.373,124.066H1.842l2.333-16.641h5.532L7.373,124.066z M9.85,106.486H4.295l0.409-2.741h5.531
		L9.85,106.486z"/>
	<path fill="#00AEEF" d="M24.471,124.066h-5.53l2.068-14.79h-3.68l-2.092,14.79H9.706l2.332-16.641h14.766L24.471,124.066z"/>
	<path fill="#00AEEF" d="M53.065,124.066H38.299l2.862-20.321h5.531l-0.529,3.68h9.259l-0.265,1.852h-9.234l-1.828,12.938h3.679
		l0.649-4.617h5.556L53.065,124.066z"/>
	<path fill="#00AEEF" d="M69.033,124.066h-5.531l2.092-14.79h-3.703l-2.093,14.79h-5.531l2.862-20.321h5.531l-0.505,3.68h9.235
		L69.033,124.066z"/>
	<path fill="#00AEEF" d="M86.661,120.363H78.34l0.265-1.852h2.766l1.299-9.234h-3.68l-1.827,12.938h9.234l-0.264,1.852H71.366
		l2.332-16.641h14.766L86.661,120.363z"/>
	<path fill="#00AEEF" d="M117.25,107.425l-9.667,14.79h7.599l-0.265,1.852h-14.765l9.643-14.79h-7.576l0.265-1.852H117.25z"/>
	<path fill="#00AEEF" d="M131.125,124.066H116.36l2.333-16.641h14.765L131.125,124.066z M125.835,122.214l1.828-12.938h-3.679
		l-1.828,12.938H125.835z"/>
	<path fill="#00AEEF" d="M147.96,124.066h-5.531l2.068-14.79h-3.68l-2.092,14.79h-5.531l2.333-16.641h14.766L147.96,124.066z"/>
	<path fill="#00AEEF" d="M165.322,120.363h-8.32l0.265-1.852h2.765l1.299-9.234h-3.68l-1.828,12.938h9.234l-0.264,1.852h-14.766
		l2.333-16.641h14.765L165.322,120.363z"/>
	<path fill="#FFFFFF" d="M2.42,156.922v-1.533h8.584v1.533H7.511v14.133H5.914v-14.133H2.42z"/>
	<path fill="#FFFFFF" d="M13.017,154.995h1.491v6.549c0.604-0.795,1.268-1.39,1.991-1.783c0.725-0.395,1.509-0.592,2.354-0.592
		c0.867,0,1.635,0.221,2.306,0.66s1.166,1.031,1.486,1.773c0.319,0.742,0.479,1.904,0.479,3.488v5.964h-1.491v-5.527
		c0-1.335-0.054-2.226-0.16-2.673c-0.185-0.768-0.52-1.344-1.006-1.731c-0.486-0.386-1.124-0.58-1.912-0.58
		c-0.901,0-1.709,0.298-2.423,0.895c-0.713,0.597-1.184,1.334-1.411,2.215c-0.142,0.568-0.213,1.62-0.213,3.153v4.249h-1.491
		V154.995z"/>
	<path fill="#FFFFFF" d="M36.074,167.209l1.256,0.662c-0.412,0.809-0.888,1.462-1.428,1.959c-0.541,0.498-1.147,0.875-1.823,1.135
		c-0.675,0.259-1.439,0.388-2.292,0.388c-1.891,0-3.368-0.62-4.435-1.858c-1.066-1.238-1.599-2.639-1.599-4.201
		c0-1.47,0.451-2.78,1.354-3.93c1.144-1.462,2.675-2.194,4.594-2.194c1.976,0,3.553,0.749,4.733,2.248
		c0.838,1.057,1.265,2.377,1.279,3.961H27.288c0.028,1.347,0.458,2.449,1.29,3.311c0.832,0.86,1.859,1.29,3.082,1.29
		c0.59,0,1.164-0.102,1.722-0.308c0.558-0.204,1.032-0.478,1.423-0.816C35.196,168.515,35.619,167.967,36.074,167.209z
		 M36.074,164.09c-0.199-0.796-0.489-1.431-0.87-1.907c-0.38-0.476-0.883-0.858-1.509-1.149s-1.283-0.438-1.973-0.438
		c-1.137,0-2.115,0.366-2.932,1.098c-0.597,0.533-1.049,1.331-1.354,2.396H36.074z"/>
	<path fill="#FFFFFF" d="M58.077,159.467v11.588h-1.47v-1.991c-0.625,0.759-1.326,1.331-2.104,1.714
		c-0.777,0.384-1.627,0.575-2.55,0.575c-1.64,0-3.041-0.595-4.202-1.783c-1.161-1.19-1.741-2.637-1.741-4.341
		c0-1.668,0.585-3.096,1.757-4.28c1.172-1.186,2.581-1.779,4.228-1.779c0.952,0,1.812,0.202,2.583,0.607
		c0.771,0.404,1.447,1.012,2.029,1.821v-2.131H58.077z M52.118,160.606c-0.83,0-1.596,0.205-2.298,0.611
		c-0.703,0.408-1.26,0.981-1.675,1.719s-0.623,1.519-0.623,2.34c0,0.816,0.209,1.597,0.627,2.34
		c0.418,0.746,0.981,1.325,1.687,1.741c0.706,0.414,1.463,0.621,2.271,0.621c0.816,0,1.589-0.205,2.319-0.616
		c0.73-0.412,1.292-0.969,1.686-1.671s0.591-1.492,0.591-2.371c0-1.341-0.441-2.462-1.325-3.361
		C54.496,161.058,53.409,160.606,52.118,160.606z"/>
	<path fill="#FFFFFF" d="M61.432,159.467h1.491v2.077c0.596-0.795,1.256-1.39,1.98-1.783c0.725-0.395,1.513-0.592,2.365-0.592
		c0.866,0,1.634,0.221,2.305,0.66c0.671,0.439,1.167,1.033,1.486,1.779c0.32,0.745,0.479,1.906,0.479,3.482v5.964h-1.491v-5.527
		c0-1.335-0.055-2.226-0.167-2.673c-0.172-0.768-0.503-1.344-0.993-1.731c-0.49-0.386-1.129-0.58-1.917-0.58
		c-0.902,0-1.71,0.298-2.423,0.895c-0.714,0.597-1.184,1.334-1.411,2.215c-0.142,0.576-0.213,1.627-0.213,3.153v4.249h-1.491
		V159.467z"/>
	<path fill="#FFFFFF" d="M74.733,159.467h1.491v2.077c0.597-0.795,1.257-1.39,1.981-1.783c0.724-0.395,1.512-0.592,2.364-0.592
		c0.867,0,1.635,0.221,2.306,0.66c0.671,0.439,1.167,1.033,1.486,1.779c0.319,0.745,0.479,1.906,0.479,3.482v5.964h-1.491v-5.527
		c0-1.335-0.055-2.226-0.166-2.673c-0.172-0.768-0.504-1.344-0.994-1.731c-0.49-0.386-1.129-0.58-1.917-0.58
		c-0.901,0-1.71,0.298-2.423,0.895c-0.714,0.597-1.184,1.334-1.412,2.215c-0.142,0.576-0.213,1.627-0.213,3.153v4.249h-1.491
		V159.467z"/>
	<path fill="#FFFFFF" d="M87.844,159.467h1.491v5.41c0,1.321,0.071,2.229,0.213,2.728c0.213,0.71,0.621,1.27,1.221,1.683
		c0.601,0.411,1.317,0.617,2.149,0.617c0.832,0,1.538-0.2,2.117-0.602s0.979-0.929,1.2-1.581c0.149-0.447,0.224-1.396,0.224-2.845
		v-5.41h1.523v5.688c0,1.598-0.187,2.801-0.56,3.611c-0.373,0.809-0.934,1.442-1.682,1.9c-0.75,0.458-1.688,0.687-2.817,0.687
		c-1.129,0-2.071-0.229-2.827-0.687c-0.756-0.458-1.321-1.097-1.694-1.918c-0.372-0.819-0.559-2.053-0.559-3.7V159.467z"/>
	<path fill="#FFFFFF" d="M112.839,159.467v11.588h-1.469v-1.991c-0.625,0.759-1.326,1.331-2.104,1.714
		c-0.777,0.384-1.628,0.575-2.551,0.575c-1.64,0-3.041-0.595-4.202-1.783c-1.161-1.19-1.741-2.637-1.741-4.341
		c0-1.668,0.586-3.096,1.757-4.28c1.172-1.186,2.582-1.779,4.228-1.779c0.952,0,1.813,0.202,2.583,0.607
		c0.771,0.404,1.447,1.012,2.029,1.821v-2.131H112.839z M106.88,160.606c-0.83,0-1.596,0.205-2.298,0.611
		c-0.702,0.408-1.26,0.981-1.676,1.719c-0.415,0.737-0.622,1.519-0.622,2.34c0,0.816,0.209,1.597,0.627,2.34
		c0.418,0.746,0.981,1.325,1.687,1.741c0.706,0.414,1.463,0.621,2.271,0.621c0.815,0,1.588-0.205,2.318-0.616
		c0.73-0.412,1.292-0.969,1.687-1.671c0.393-0.702,0.59-1.492,0.59-2.371c0-1.341-0.441-2.462-1.324-3.361
		C109.258,161.058,108.171,160.606,106.88,160.606z"/>
	<path fill="#FFFFFF" d="M115.97,154.995h1.491v16.06h-1.491V154.995z"/>
	<path fill="#FFFFFF" d="M137.845,161.874l-1.182,0.735c-1.021-1.355-2.415-2.035-4.181-2.035c-1.411,0-2.583,0.454-3.516,1.363
		c-0.932,0.906-1.399,2.01-1.399,3.308c0,0.845,0.215,1.638,0.644,2.383s1.018,1.322,1.766,1.734
		c0.748,0.411,1.586,0.616,2.516,0.616c1.702,0,3.092-0.678,4.17-2.034l1.182,0.778c-0.554,0.833-1.298,1.481-2.231,1.939
		c-0.934,0.461-1.997,0.69-3.19,0.69c-1.832,0-3.351-0.582-4.558-1.746c-1.208-1.165-1.811-2.581-1.811-4.25
		c0-1.121,0.282-2.163,0.847-3.126c0.564-0.961,1.34-1.712,2.327-2.252c0.987-0.539,2.091-0.81,3.313-0.81
		c0.767,0,1.507,0.117,2.221,0.352c0.713,0.234,1.319,0.54,1.815,0.916C137.075,160.813,137.497,161.292,137.845,161.874z"/>
	<path fill="#FFFFFF" d="M140.519,159.467h1.491v5.41c0,1.321,0.071,2.229,0.213,2.728c0.213,0.71,0.621,1.27,1.221,1.683
		c0.601,0.411,1.317,0.617,2.149,0.617c0.832,0,1.538-0.2,2.117-0.602s0.979-0.929,1.199-1.581c0.15-0.447,0.225-1.396,0.225-2.845
		v-5.41h1.523v5.688c0,1.598-0.187,2.801-0.56,3.611c-0.373,0.809-0.933,1.442-1.682,1.9c-0.75,0.458-1.688,0.687-2.817,0.687
		c-1.129,0-2.072-0.229-2.828-0.687c-0.756-0.458-1.321-1.097-1.694-1.918c-0.373-0.819-0.559-2.053-0.559-3.7V159.467z"/>
	<path fill="#FFFFFF" d="M153.746,154.995h1.491v16.06h-1.491V154.995z"/>
	<path fill="#FFFFFF" d="M159.635,155.164h1.491v4.303h2.365v1.289h-2.365v10.299h-1.491v-10.299h-2.035v-1.289h2.035V155.164z"/>
	<path fill="#FFFFFF" d="M165.535,159.467h1.491v5.41c0,1.321,0.071,2.229,0.214,2.728c0.213,0.71,0.62,1.27,1.221,1.683
		c0.6,0.411,1.317,0.617,2.149,0.617s1.537-0.2,2.116-0.602c0.58-0.401,0.979-0.929,1.2-1.581c0.149-0.447,0.225-1.396,0.225-2.845
		v-5.41h1.522v5.688c0,1.598-0.187,2.801-0.56,3.611c-0.372,0.809-0.933,1.442-1.683,1.9c-0.749,0.458-1.688,0.687-2.817,0.687
		c-1.129,0-2.071-0.229-2.827-0.687s-1.321-1.097-1.694-1.918c-0.372-0.819-0.559-2.053-0.559-3.7V159.467z"/>
	<path fill="#FFFFFF" d="M178.422,159.467h1.523v1.694c0.453-0.668,0.933-1.166,1.438-1.497c0.504-0.33,1.028-0.495,1.575-0.495
		c0.412,0,0.853,0.131,1.321,0.395l-0.777,1.257c-0.313-0.136-0.576-0.202-0.789-0.202c-0.496,0-0.976,0.204-1.438,0.612
		c-0.461,0.407-0.813,1.042-1.054,1.9c-0.185,0.66-0.276,1.995-0.276,4.005v3.919h-1.523V159.467z"/>
	<path fill="#FFFFFF" d="M197.091,159.467v11.588h-1.47v-1.991c-0.625,0.759-1.326,1.331-2.104,1.714
		c-0.777,0.384-1.627,0.575-2.551,0.575c-1.64,0-3.04-0.595-4.201-1.783c-1.161-1.19-1.74-2.637-1.74-4.341
		c0-1.668,0.585-3.096,1.756-4.28c1.173-1.186,2.581-1.779,4.229-1.779c0.951,0,1.813,0.202,2.583,0.607
		c0.77,0.404,1.446,1.012,2.028,1.821v-2.131H197.091z M191.132,160.606c-0.829,0-1.595,0.205-2.297,0.611
		c-0.703,0.408-1.261,0.981-1.677,1.719c-0.413,0.737-0.621,1.519-0.621,2.34c0,0.816,0.21,1.597,0.627,2.34
		c0.418,0.746,0.981,1.325,1.687,1.741c0.706,0.414,1.463,0.621,2.271,0.621c0.815,0,1.588-0.205,2.317-0.616
		c0.73-0.412,1.294-0.969,1.688-1.671c0.393-0.702,0.59-1.492,0.59-2.371c0-1.341-0.441-2.462-1.324-3.361
		C193.509,161.058,192.423,160.606,191.132,160.606z"/>
	<path fill="#FFFFFF" d="M200.222,154.995h1.491v16.06h-1.491V154.995z"/>
	<path fill="#FFFFFF" d="M215.622,154.995v1.458c-0.547-0.233-1.016-0.351-1.405-0.351c-0.292,0-0.533,0.058-0.725,0.175
		s-0.312,0.253-0.362,0.405c-0.05,0.152-0.074,0.56-0.074,1.22l-0.001,1.564h2.419v1.289h-2.421l-0.009,10.299h-1.49v-10.299h-1.523
		v-1.289h1.523v-1.81c0-0.831,0.076-1.425,0.229-1.779c0.151-0.354,0.411-0.641,0.777-0.856c0.364-0.216,0.807-0.325,1.325-0.325
		C214.368,154.696,214.948,154.795,215.622,154.995z"/>
	<path fill="#FFFFFF" d="M227.454,167.209l1.257,0.662c-0.412,0.809-0.888,1.462-1.428,1.959c-0.541,0.498-1.148,0.875-1.823,1.135
		c-0.676,0.259-1.439,0.388-2.292,0.388c-1.891,0-3.369-0.62-4.435-1.858c-1.066-1.238-1.6-2.639-1.6-4.201
		c0-1.47,0.452-2.78,1.354-3.93c1.144-1.462,2.675-2.194,4.594-2.194c1.976,0,3.553,0.749,4.733,2.248
		c0.838,1.057,1.266,2.377,1.278,3.961h-10.426c0.028,1.347,0.458,2.449,1.29,3.311c0.832,0.86,1.859,1.29,3.081,1.29
		c0.59,0,1.165-0.102,1.723-0.308c0.559-0.204,1.032-0.478,1.423-0.816C226.577,168.515,227,167.967,227.454,167.209z
		 M227.454,164.09c-0.199-0.796-0.489-1.431-0.869-1.907c-0.381-0.476-0.883-0.858-1.509-1.149
		c-0.625-0.291-1.284-0.438-1.973-0.438c-1.137,0-2.115,0.366-2.932,1.098c-0.598,0.533-1.05,1.331-1.355,2.396H227.454z"/>
	<path fill="#FFFFFF" d="M237.699,160.735l-0.959,0.99c-0.797-0.774-1.576-1.161-2.338-1.161c-0.483,0-0.899,0.159-1.244,0.479
		c-0.345,0.319-0.518,0.691-0.518,1.118c0,0.375,0.143,0.734,0.428,1.076c0.284,0.348,0.881,0.756,1.792,1.225
		c1.11,0.574,1.864,1.128,2.263,1.66c0.391,0.541,0.587,1.147,0.587,1.821c0,0.951-0.335,1.758-1.003,2.418s-1.504,0.99-2.506,0.99
		c-0.669,0-1.308-0.146-1.915-0.436c-0.607-0.291-1.111-0.693-1.509-1.204l0.937-1.064c0.762,0.858,1.569,1.288,2.423,1.288
		c0.599,0,1.107-0.192,1.527-0.575s0.629-0.834,0.629-1.353c0-0.426-0.138-0.806-0.416-1.14c-0.276-0.327-0.903-0.738-1.879-1.235
		c-1.045-0.54-1.757-1.072-2.134-1.598s-0.565-1.126-0.565-1.8c0-0.881,0.3-1.611,0.9-2.193c0.603-0.583,1.36-0.874,2.278-0.874
		C235.545,159.169,236.618,159.691,237.699,160.735z"/>
	<path fill="#FFFFFF" d="M241.64,155.164h1.491v4.303h2.364v1.289h-2.364v10.299h-1.491v-10.299h-2.034v-1.289h2.034V155.164z"/>
	<path fill="#FFFFFF" d="M259.255,159.169c1.785,0,3.265,0.647,4.438,1.938c1.067,1.179,1.601,2.574,1.601,4.186
		c0,1.619-0.563,3.033-1.69,4.244s-2.577,1.815-4.348,1.815c-1.779,0-3.231-0.604-4.357-1.815c-1.129-1.211-1.692-2.625-1.692-4.244
		c0-1.604,0.534-2.996,1.601-4.175C255.98,159.818,257.463,159.169,259.255,159.169z M259.249,160.628
		c-1.239,0-2.304,0.459-3.195,1.374c-0.891,0.916-1.336,2.023-1.336,3.322c0,0.839,0.204,1.62,0.609,2.344s0.954,1.283,1.646,1.677
		c0.69,0.395,1.449,0.592,2.275,0.592s1.585-0.197,2.276-0.592c0.691-0.394,1.24-0.953,1.646-1.677
		c0.405-0.724,0.609-1.505,0.609-2.344c0-1.299-0.448-2.406-1.343-3.322C261.546,161.087,260.481,160.628,259.249,160.628z"/>
	<path fill="#FFFFFF" d="M272.823,154.995v1.458c-0.547-0.233-1.015-0.351-1.406-0.351c-0.29,0-0.532,0.058-0.724,0.175
		c-0.192,0.117-0.313,0.253-0.362,0.405c-0.051,0.152-0.075,0.56-0.075,1.22l-0.001,1.564h2.419v1.289h-2.42l-0.008,10.299h-1.491
		v-10.299h-1.523v-1.289h1.523v-1.81c0-0.831,0.077-1.425,0.229-1.779c0.152-0.354,0.412-0.641,0.777-0.856
		c0.366-0.216,0.808-0.325,1.326-0.325C271.569,154.696,272.148,154.795,272.823,154.995z"/>
	<path fill="#FFFFFF" d="M3.986,194.993v-15.665h0.341l10.426,12.008v-12.008h1.544v15.665h-0.352L5.604,183.131v11.862H3.986z"/>
	<path fill="#FFFFFF" d="M19.886,179.328h1.566v15.665h-1.566V179.328z"/>
	<path fill="#FFFFFF" d="M23.486,180.861v-1.533h8.584v1.533h-3.493v14.132h-1.598v-14.132H23.486z"/>
	<path fill="#FFFFFF" d="M38.747,192.075l1.332-0.798c0.937,1.725,2.02,2.587,3.248,2.587c0.525,0,1.019-0.122,1.48-0.366
		c0.462-0.246,0.813-0.573,1.055-0.986c0.241-0.411,0.362-0.849,0.362-1.31c0-0.525-0.177-1.04-0.533-1.544
		c-0.49-0.695-1.384-1.534-2.684-2.514c-1.307-0.987-2.12-1.7-2.439-2.141c-0.554-0.738-0.831-1.537-0.831-2.396
		c0-0.683,0.164-1.303,0.49-1.864c0.327-0.562,0.787-1.004,1.379-1.326c0.593-0.323,1.237-0.484,1.933-0.484
		c0.739,0,1.429,0.183,2.071,0.549c0.643,0.365,1.322,1.038,2.04,2.018l-1.278,0.969c-0.589-0.779-1.092-1.296-1.507-1.544
		c-0.415-0.248-0.868-0.372-1.358-0.372c-0.632,0-1.148,0.191-1.549,0.574c-0.401,0.384-0.602,0.855-0.602,1.416
		c0,0.342,0.071,0.672,0.213,0.991c0.142,0.319,0.401,0.668,0.777,1.044c0.206,0.199,0.88,0.721,2.023,1.565
		c1.357,1.001,2.286,1.893,2.791,2.673c0.504,0.781,0.756,1.566,0.756,2.354c0,1.137-0.431,2.123-1.293,2.961
		s-1.912,1.257-3.147,1.257c-0.951,0-1.814-0.254-2.588-0.762C40.114,194.118,39.4,193.268,38.747,192.075z"/>
	<path fill="#FFFFFF" d="M51.5,178.636c0.339,0,0.629,0.12,0.87,0.362c0.24,0.241,0.361,0.532,0.361,0.873
		c0,0.332-0.121,0.62-0.361,0.862s-0.53,0.362-0.87,0.362c-0.332,0-0.619-0.12-0.859-0.362c-0.24-0.242-0.36-0.53-0.36-0.862
		c0-0.341,0.12-0.632,0.36-0.873C50.882,178.756,51.168,178.636,51.5,178.636z M50.76,183.406h1.491v11.587H50.76V183.406z"/>
	<path fill="#FFFFFF" d="M55.127,178.934h1.491v16.06h-1.491V178.934z"/>
	<path fill="#FFFFFF" d="M70.963,185.813l-1.182,0.734c-1.021-1.355-2.415-2.034-4.181-2.034c-1.411,0-2.583,0.454-3.516,1.362
		c-0.933,0.907-1.399,2.01-1.399,3.308c0,0.845,0.215,1.639,0.643,2.383c0.429,0.746,1.018,1.322,1.767,1.735
		c0.748,0.411,1.586,0.616,2.516,0.616c1.702,0,3.092-0.678,4.17-2.034l1.182,0.777c-0.554,0.834-1.298,1.481-2.231,1.94
		c-0.934,0.46-1.997,0.69-3.19,0.69c-1.832,0-3.351-0.583-4.558-1.746c-1.207-1.165-1.811-2.581-1.811-4.251
		c0-1.12,0.282-2.163,0.847-3.125c0.564-0.961,1.34-1.713,2.327-2.253c0.987-0.539,2.091-0.81,3.313-0.81
		c0.767,0,1.507,0.117,2.221,0.353c0.713,0.234,1.319,0.54,1.815,0.916C70.193,184.752,70.615,185.231,70.963,185.813z"/>
	<path fill="#FFFFFF" d="M73.828,178.934h1.491v6.55c0.603-0.795,1.267-1.39,1.991-1.784s1.509-0.592,2.354-0.592
		c0.867,0,1.635,0.221,2.306,0.66c0.671,0.441,1.166,1.032,1.485,1.773c0.32,0.743,0.479,1.905,0.479,3.489v5.963h-1.49v-5.527
		c0-1.334-0.054-2.226-0.16-2.673c-0.185-0.767-0.521-1.344-1.006-1.73s-1.124-0.581-1.912-0.581c-0.901,0-1.709,0.299-2.423,0.895
		c-0.713,0.597-1.184,1.335-1.411,2.216c-0.142,0.568-0.213,1.619-0.213,3.152v4.249h-1.491V178.934z"/>
	<path fill="#FFFFFF" d="M98.675,183.406v11.587h-1.47v-1.991c-0.625,0.759-1.326,1.331-2.104,1.715s-1.628,0.575-2.551,0.575
		c-1.64,0-3.041-0.595-4.201-1.784c-1.161-1.189-1.742-2.636-1.742-4.34c0-1.668,0.586-3.096,1.757-4.281s2.581-1.779,4.228-1.779
		c0.952,0,1.813,0.203,2.583,0.608c0.77,0.404,1.446,1.012,2.029,1.821v-2.131H98.675z M92.716,184.547
		c-0.83,0-1.596,0.204-2.297,0.61c-0.703,0.407-1.261,0.98-1.676,1.719c-0.415,0.737-0.622,1.519-0.622,2.34
		c0,0.815,0.209,1.595,0.627,2.34c0.419,0.745,0.981,1.325,1.687,1.74s1.462,0.622,2.271,0.622c0.816,0,1.588-0.205,2.319-0.616
		c0.73-0.413,1.292-0.969,1.686-1.671c0.393-0.703,0.59-1.492,0.59-2.372c0-1.34-0.441-2.462-1.324-3.361
		C95.094,184.996,94.007,184.547,92.716,184.547z"/>
	<path fill="#FFFFFF" d="M101.465,183.406h1.523v1.693c0.454-0.668,0.933-1.166,1.438-1.496c0.504-0.33,1.029-0.496,1.576-0.496
		c0.412,0,0.852,0.132,1.321,0.396l-0.777,1.257c-0.313-0.137-0.575-0.203-0.788-0.203c-0.497,0-0.977,0.204-1.438,0.612
		c-0.462,0.408-0.813,1.041-1.055,1.901c-0.185,0.66-0.277,1.994-0.277,4.004v3.919h-1.523V183.406z"/>
	<path fill="#FFFFFF" d="M3.789,234.77v-13.795h2.86c2.063,0,3.561,0.166,4.492,0.497c1.338,0.47,2.383,1.282,3.137,2.438
		s1.13,2.535,1.13,4.136c0,1.382-0.299,2.598-0.896,3.648c-0.597,1.05-1.372,1.825-2.326,2.325c-0.953,0.5-2.29,0.75-4.009,0.75
		H3.789z M5.111,233.467h1.594c1.907,0,3.229-0.119,3.967-0.356c1.038-0.337,1.854-0.944,2.447-1.822
		c0.594-0.878,0.891-1.951,0.891-3.219c0-1.331-0.322-2.468-0.966-3.411c-0.644-0.943-1.542-1.589-2.691-1.939
		c-0.863-0.262-2.285-0.394-4.267-0.394H5.111V233.467z"/>
	<path fill="#FFFFFF" d="M28.031,224.566v10.203h-1.294v-1.753c-0.55,0.668-1.167,1.172-1.852,1.51
		c-0.685,0.337-1.433,0.506-2.246,0.506c-1.444,0-2.677-0.523-3.699-1.57c-1.022-1.048-1.534-2.321-1.534-3.821
		c0-1.47,0.516-2.727,1.547-3.771c1.032-1.044,2.273-1.566,3.723-1.566c0.838,0,1.596,0.179,2.274,0.535
		c0.678,0.356,1.274,0.891,1.786,1.604v-1.876H28.031z M22.784,225.57c-0.73,0-1.405,0.18-2.023,0.538
		c-0.618,0.359-1.11,0.864-1.476,1.514c-0.365,0.649-0.547,1.336-0.547,2.061c0,0.718,0.184,1.404,0.552,2.06
		c0.369,0.657,0.864,1.167,1.485,1.533c0.622,0.364,1.288,0.547,2,0.547c0.718,0,1.398-0.181,2.042-0.543s1.138-0.852,1.484-1.471
		c0.347-0.618,0.52-1.314,0.52-2.089c0-1.18-0.389-2.167-1.166-2.96S23.921,225.57,22.784,225.57z"/>
	<path fill="#FFFFFF" d="M32.129,220.778h1.313v3.788h2.082v1.135h-2.082v9.068h-1.313v-9.068h-1.792v-1.135h1.792V220.778z"/>
	<path fill="#FFFFFF" d="M46.083,231.385l1.107,0.581c-0.363,0.713-0.782,1.288-1.258,1.726c-0.476,0.438-1.011,0.771-1.605,0.999
		c-0.595,0.228-1.267,0.342-2.018,0.342c-1.665,0-2.966-0.546-3.904-1.636c-0.939-1.091-1.408-2.324-1.408-3.7
		c0-1.294,0.397-2.447,1.192-3.46c1.008-1.288,2.356-1.933,4.045-1.933c1.74,0,3.128,0.659,4.167,1.979
		c0.738,0.931,1.114,2.094,1.126,3.488h-9.181c0.025,1.186,0.404,2.157,1.136,2.915c0.732,0.757,1.637,1.136,2.713,1.136
		c0.52,0,1.025-0.09,1.517-0.271c0.491-0.18,0.909-0.42,1.253-0.72C45.311,232.533,45.683,232.051,46.083,231.385z M46.083,228.637
		c-0.175-0.7-0.43-1.26-0.765-1.679s-0.778-0.757-1.329-1.013c-0.551-0.256-1.13-0.385-1.737-0.385
		c-1.002,0-1.863,0.322-2.583,0.966c-0.525,0.47-0.923,1.173-1.192,2.11H46.083z"/>
	<path fill="#FFFFFF" d="M55.105,225.683l-0.844,0.872c-0.703-0.682-1.388-1.022-2.059-1.022c-0.427,0-0.792,0.141-1.096,0.423
		c-0.304,0.281-0.456,0.609-0.456,0.984c0,0.331,0.125,0.646,0.376,0.947c0.25,0.307,0.776,0.666,1.579,1.078
		c0.977,0.507,1.641,0.994,1.992,1.463c0.344,0.476,0.517,1.01,0.517,1.604c0,0.838-0.294,1.548-0.883,2.129
		c-0.588,0.582-1.324,0.872-2.207,0.872c-0.589,0-1.15-0.128-1.686-0.384c-0.536-0.257-0.978-0.61-1.329-1.061l0.825-0.938
		c0.67,0.757,1.382,1.135,2.134,1.135c0.526,0,0.974-0.169,1.344-0.506c0.37-0.338,0.555-0.734,0.555-1.191
		c0-0.375-0.122-0.71-0.367-1.004c-0.244-0.287-0.795-0.649-1.654-1.088c-0.921-0.475-1.548-0.944-1.879-1.406
		c-0.332-0.462-0.498-0.991-0.498-1.585c0-0.775,0.264-1.419,0.793-1.932s1.198-0.77,2.006-0.77
		C53.208,224.304,54.153,224.764,55.105,225.683z"/>
	<path fill="#FFFFFF" d="M58.875,224.304c0.319,0,0.591,0.113,0.816,0.338c0.225,0.226,0.338,0.5,0.338,0.825
		s-0.113,0.601-0.338,0.825c-0.225,0.226-0.497,0.338-0.816,0.338s-0.591-0.112-0.816-0.338c-0.225-0.225-0.337-0.5-0.337-0.825
		c0-0.318,0.112-0.593,0.337-0.82S58.556,224.304,58.875,224.304z M58.875,232.707c0.319,0,0.591,0.112,0.816,0.337
		c0.225,0.226,0.338,0.5,0.338,0.825c0,0.319-0.113,0.593-0.338,0.821c-0.225,0.228-0.497,0.342-0.816,0.342
		s-0.591-0.114-0.816-0.342c-0.225-0.229-0.337-0.502-0.337-0.821c0-0.325,0.112-0.6,0.337-0.825
		C58.284,232.819,58.556,232.707,58.875,232.707z"/>
	<path fill="#FFFFFF" d="M70.157,220.975h2.71v13.795h-1.369v-12.444h-2.167L70.157,220.975z"/>
	<path fill="#FFFFFF" d="M86.69,220.975v1.313h-4.902l-0.69,3.762c0.6-0.176,1.14-0.264,1.621-0.264c1.255,0,2.291,0.42,3.105,1.261
		c0.815,0.842,1.222,1.918,1.222,3.23c0,0.907-0.209,1.738-0.628,2.495c-0.418,0.757-0.986,1.336-1.702,1.739
		c-0.716,0.403-1.542,0.605-2.48,0.605c-1.119,0-2.063-0.343-2.832-1.027s-1.229-1.57-1.378-2.658h1.416
		c0.106,0.531,0.286,0.963,0.539,1.294c0.253,0.331,0.591,0.599,1.013,0.802c0.422,0.203,0.864,0.305,1.327,0.305
		c0.907,0,1.685-0.343,2.335-1.029c0.65-0.688,0.975-1.546,0.975-2.576c0-0.931-0.294-1.686-0.881-2.266
		c-0.588-0.581-1.373-0.871-2.354-0.871c-0.813,0-1.797,0.246-2.954,0.74l1.275-6.855H86.69z"/>
	<path fill="#FFFFFF" d="M90.657,232.238l1.266,0.6l-1.904,3.545l-0.928-0.394L90.657,232.238z"/>
	<path fill="#FFFFFF" d="M102.079,220.975h2.71v13.795h-1.369v-12.444h-2.167L102.079,220.975z"/>
	<path fill="#FFFFFF" d="M116.221,220.628l1.135,0.741l-3.73,5.645c0.5-0.168,0.969-0.253,1.408-0.253
		c1.096,0,2.026,0.396,2.79,1.187c0.764,0.791,1.146,1.765,1.146,2.922c0,0.794-0.185,1.512-0.554,2.151
		c-0.37,0.641-0.894,1.151-1.573,1.529c-0.679,0.378-1.41,0.567-2.192,0.567c-0.757,0-1.46-0.184-2.108-0.549
		c-0.648-0.366-1.156-0.88-1.526-1.543c-0.369-0.663-0.554-1.372-0.554-2.129c0-0.563,0.114-1.155,0.343-1.776
		c0.229-0.622,0.637-1.371,1.226-2.246L116.221,220.628z M114.706,227.971c-0.802,0-1.486,0.283-2.052,0.849s-0.85,1.252-0.85,2.059
		c0,0.8,0.283,1.483,0.85,2.049s1.251,0.849,2.052,0.849s1.485-0.283,2.052-0.849s0.85-1.249,0.85-2.049
		c0-0.807-0.284-1.493-0.85-2.059C116.192,228.254,115.507,227.971,114.706,227.971z"/>
	<path fill="#FFFFFF" d="M122.579,232.238l1.266,0.6l-1.904,3.545l-0.928-0.394L122.579,232.238z"/>
	<path fill="#FFFFFF" d="M134.001,220.975h2.71v13.795h-1.369v-12.444h-2.167L134.001,220.975z"/>
	<path fill="#FFFFFF" d="M142.47,220.975h8.75l-7.381,14.143l-1.142-0.586l6.369-12.243h-6.596V220.975z"/>
	<path fill="#FFFFFF" d="M154.502,232.238l1.266,0.6l-1.903,3.545l-0.929-0.394L154.502,232.238z"/>
	<path fill="#FFFFFF" d="M165.924,220.975h2.71v13.795h-1.369v-12.444h-2.167L165.924,220.975z"/>
	<path fill="#FFFFFF" d="M180.395,227.202c0.931,0.462,1.599,0.991,2.002,1.585s0.604,1.269,0.604,2.025
		c0,1.063-0.347,2-1.041,2.813c-0.851,0.994-2.065,1.491-3.647,1.491c-1.526,0-2.683-0.437-3.47-1.309
		c-0.788-0.872-1.182-1.833-1.182-2.884c0-0.769,0.206-1.461,0.618-2.077c0.413-0.616,1.101-1.165,2.063-1.646
		c-0.675-0.35-1.182-0.785-1.519-1.304c-0.338-0.519-0.507-1.076-0.507-1.669c0-0.601,0.18-1.187,0.539-1.759
		s0.856-1.022,1.491-1.351s1.32-0.492,2.059-0.492c0.719,0,1.385,0.166,1.997,0.497s1.093,0.781,1.439,1.351
		c0.348,0.569,0.521,1.165,0.521,1.791s-0.164,1.182-0.492,1.669C181.543,226.424,181.051,226.846,180.395,227.202z
		 M178.401,227.896c-0.949,0-1.745,0.308-2.389,0.924c-0.643,0.616-0.964,1.334-0.964,2.152c0,0.507,0.137,0.984,0.412,1.435
		c0.274,0.45,0.659,0.798,1.152,1.041c0.493,0.244,1.064,0.366,1.713,0.366c1.006,0,1.805-0.298,2.397-0.891
		c0.594-0.594,0.89-1.288,0.89-2.082c0-0.77-0.314-1.452-0.941-2.05C180.044,228.194,179.288,227.896,178.401,227.896z
		 M178.336,221.969c-0.758,0-1.387,0.224-1.884,0.671c-0.498,0.447-0.747,0.979-0.747,1.599c0,0.612,0.268,1.168,0.804,1.665
		c0.535,0.497,1.16,0.745,1.874,0.745c0.457,0,0.889-0.112,1.297-0.338c0.407-0.225,0.725-0.532,0.953-0.923
		c0.229-0.392,0.343-0.783,0.343-1.178c0-0.556-0.225-1.068-0.676-1.538C179.849,222.203,179.193,221.969,178.336,221.969z"/>
	<path fill="#FFFFFF" d="M190.653,220.975h6.912v1.351h-5.533v4.323h5.533v1.351h-5.533v6.771h-1.379V220.975z"/>
	<path fill="#FFFFFF" d="M208.341,231.385l1.106,0.581c-0.363,0.713-0.782,1.288-1.258,1.726s-1.011,0.771-1.605,0.999
		c-0.595,0.228-1.267,0.342-2.019,0.342c-1.664,0-2.966-0.546-3.904-1.636c-0.939-1.091-1.408-2.324-1.408-3.7
		c0-1.294,0.397-2.447,1.192-3.46c1.007-1.288,2.355-1.933,4.046-1.933c1.739,0,3.128,0.659,4.167,1.979
		c0.738,0.931,1.114,2.094,1.126,3.488h-9.181c0.025,1.186,0.403,2.157,1.136,2.915c0.732,0.757,1.638,1.136,2.714,1.136
		c0.52,0,1.025-0.09,1.517-0.271c0.491-0.18,0.908-0.42,1.253-0.72C207.567,232.533,207.94,232.051,208.341,231.385z
		 M208.341,228.637c-0.176-0.7-0.431-1.26-0.766-1.679s-0.777-0.757-1.329-1.013c-0.55-0.256-1.13-0.385-1.736-0.385
		c-1.002,0-1.862,0.322-2.582,0.966c-0.526,0.47-0.924,1.173-1.192,2.11H208.341z"/>
	<path fill="#FFFFFF" d="M212.316,234.77v-14.142h1.313v5.692c0.549-0.675,1.164-1.18,1.846-1.515
		c0.681-0.335,1.427-0.502,2.239-0.502c1.442,0,2.674,0.523,3.695,1.571c1.021,1.048,1.531,2.318,1.531,3.813
		c0,1.475-0.516,2.735-1.545,3.779c-1.031,1.043-2.271,1.565-3.72,1.565c-0.831,0-1.584-0.178-2.258-0.534
		c-0.675-0.356-1.271-0.891-1.789-1.604v1.875H212.316z M217.568,233.767c0.729,0,1.403-0.181,2.021-0.539
		c0.617-0.359,1.108-0.865,1.474-1.515c0.365-0.65,0.548-1.339,0.548-2.063s-0.184-1.416-0.553-2.072
		c-0.367-0.656-0.861-1.168-1.482-1.533c-0.621-0.366-1.283-0.549-1.988-0.549c-0.718,0-1.399,0.183-2.044,0.549
		c-0.646,0.365-1.142,0.857-1.487,1.477c-0.347,0.619-0.52,1.316-0.52,2.092c0,1.182,0.388,2.169,1.164,2.963
		C215.477,233.37,216.433,233.767,217.568,233.767z"/>
	<path fill="#FFFFFF" d="M231.41,225.289h-1.322c0.037-1.36,0.492-2.477,1.364-3.351c0.872-0.873,1.949-1.311,3.23-1.311
		c1.27,0,2.296,0.41,3.081,1.229c0.785,0.818,1.177,1.785,1.177,2.898c0,0.782-0.188,1.516-0.561,2.2
		c-0.374,0.685-1.102,1.612-2.18,2.781l-3.436,3.701h6.363v1.331h-9.368l5.271-5.695c1.068-1.146,1.765-1.994,2.086-2.549
		c0.322-0.553,0.483-1.137,0.483-1.75c0-0.776-0.289-1.443-0.867-2.004c-0.579-0.56-1.287-0.84-2.124-0.84
		c-0.882,0-1.615,0.293-2.199,0.882C231.824,223.401,231.491,224.227,231.41,225.289z"/>
	<path fill="#FFFFFF" d="M240.441,227.877c0-1.819,0.194-3.226,0.586-4.22c0.391-0.994,0.942-1.747,1.655-2.261
		c0.713-0.513,1.51-0.769,2.391-0.769c0.895,0,1.704,0.258,2.43,0.773c0.725,0.516,1.299,1.29,1.721,2.321s0.633,2.417,0.633,4.154
		c0,1.732-0.208,3.111-0.624,4.136c-0.415,1.025-0.989,1.799-1.721,2.321s-1.544,0.783-2.438,0.783c-0.881,0-1.676-0.254-2.382-0.76
		c-0.706-0.507-1.258-1.262-1.655-2.265C240.64,231.089,240.441,229.685,240.441,227.877z M241.744,227.9
		c0,1.558,0.14,2.735,0.418,3.534c0.278,0.798,0.689,1.402,1.233,1.816c0.544,0.412,1.118,0.618,1.726,0.618
		c0.612,0,1.184-0.201,1.716-0.604c0.531-0.404,0.935-1.009,1.21-1.816c0.344-0.982,0.516-2.164,0.516-3.548
		c0-1.389-0.153-2.526-0.46-3.411c-0.307-0.886-0.729-1.532-1.271-1.942s-1.111-0.615-1.711-0.615c-0.613,0-1.188,0.205-1.726,0.615
		c-0.538,0.41-0.947,1.013-1.229,1.811C241.885,225.155,241.744,226.336,241.744,227.9z"/>
	<path fill="#FFFFFF" d="M254.029,220.975h2.711v13.795h-1.369v-12.444h-2.167L254.029,220.975z"/>
	<path fill="#FFFFFF" d="M264.805,235.117l-1.135-0.731l3.732-5.648c-0.501,0.164-0.97,0.246-1.408,0.246
		c-1.097,0-2.026-0.396-2.791-1.186c-0.765-0.791-1.146-1.766-1.146-2.922c0-0.794,0.186-1.51,0.554-2.147s0.893-1.146,1.571-1.528
		c0.678-0.382,1.404-0.572,2.18-0.572c0.763,0,1.468,0.185,2.115,0.554c0.646,0.368,1.155,0.884,1.523,1.547
		c0.369,0.663,0.554,1.369,0.554,2.119c0,0.569-0.114,1.165-0.343,1.787c-0.228,0.621-0.636,1.371-1.224,2.246L264.805,235.117z
		 M266.312,227.773c0.809,0,1.494-0.283,2.057-0.849s0.845-1.249,0.845-2.049s-0.283-1.483-0.85-2.049
		c-0.565-0.565-1.252-0.849-2.058-0.849c-0.8,0-1.484,0.283-2.05,0.849s-0.849,1.249-0.849,2.049s0.283,1.483,0.851,2.049
		S265.51,227.773,266.312,227.773z"/>
</g>
</svg>
