<?xml version="1.0" encoding="utf-8"?>
<!-- Generator: Adobe Illustrator 16.0.0, SVG Export Plug-In . SVG Version: 6.00 Build 0)  -->
<!DOCTYPE svg PUBLIC "-//W3C//DTD SVG 1.1//EN" "http://www.w3.org/Graphics/SVG/1.1/DTD/svg11.dtd">
<svg version="1.1" id="Layer_1" xmlns="http://www.w3.org/2000/svg" xmlns:xlink="http://www.w3.org/1999/xlink" x="0px" y="0px"
	 width="483.747px" height="438.93px" viewBox="0 0 483.747 438.93" enable-background="new 0 0 483.747 438.93"
	 xml:space="preserve">
<g>
	<rect x="378.047" y="424.721" fill="#A97C50" width="23.883" height="19.459"/>
	<rect x="384.586" y="197.465" fill="#A97C50" width="10.805" height="227.256"/>
	<rect x="389.989" y="197.465" opacity="0.2" width="5.402" height="227.256"/>
	<rect x="308.042" y="213.247" fill="#A97C50" width="156.25" height="8.701"/>
	<rect x="328.073" y="209.883" fill="#A97C50" width="4.865" height="23.707"/>
	<rect x="442.174" y="209.883" fill="#A97C50" width="4.865" height="23.707"/>
	<rect x="288.588" y="233.59" fill="#FFFFFF" width="195.158" height="87.645"/>
	<rect x="296.106" y="240.745" fill="#00AEEF" width="180.121" height="73.336"/>
	<rect x="308.042" y="217.598" opacity="0.2" width="156.25" height="4.35"/>
</g>
<g>
	<rect x="170.202" y="416.049" fill="#A97C50" width="28.094" height="22.889"/>
	<rect x="177.895" y="148.725" fill="#A97C50" width="12.709" height="267.325"/>
	<rect x="184.249" y="148.725" opacity="0.2" width="6.355" height="267.325"/>
	<rect x="87.856" y="167.289" fill="#A97C50" width="123.979" height="10.235"/>
	<rect x="87.856" y="172.407" opacity="0.2" width="123.979" height="5.117"/>
	<rect y="57.623" fill="#FFFFFF" width="163.096" height="229.567"/>
	<rect x="8.415" y="66.467" fill="#00AEEF" width="146.266" height="211.879"/>
</g>
<g>
	<rect x="233.667" y="416.93" fill="#A97C50" width="27" height="22"/>
	<rect x="241.059" fill="#A97C50" width="12.215" height="416.93"/>
	<rect x="247.167" opacity="0.2" width="6.107" height="416.93"/>
	<rect x="226.526" y="17.843" fill="#A97C50" width="220.641" height="9.838"/>
	<rect x="281.167" y="14.041" fill="#A97C50" width="5.5" height="26.802"/>
	<rect x="400.167" y="14.041" fill="#A97C50" width="5.5" height="26.802"/>
	<rect x="226.526" y="40.843" fill="#FFFFFF" width="220.641" height="129.088"/>
	<rect x="235.026" y="48.931" fill="#00AEEF" width="203.641" height="112.912"/>
	<rect x="226.526" y="22.762" opacity="0.2" width="220.641" height="4.919"/>
</g>
<g>
	<path fill="#FFFFFF" d="M59.601,158.515l-0.85,0.652c-0.469-0.61-1.032-1.073-1.688-1.388c-0.656-0.314-1.378-0.472-2.164-0.472
		c-0.859,0-1.655,0.207-2.388,0.619c-0.732,0.413-1.3,0.967-1.702,1.663c-0.404,0.695-0.605,1.478-0.605,2.347
		c0,1.313,0.451,2.41,1.352,3.289s2.037,1.318,3.41,1.318c1.508,0,2.771-0.591,3.786-1.772l0.85,0.645
		c-0.537,0.684-1.208,1.212-2.011,1.586c-0.803,0.373-1.7,0.56-2.691,0.56c-1.885,0-3.371-0.627-4.461-1.882
		c-0.912-1.06-1.369-2.339-1.369-3.838c0-1.577,0.553-2.904,1.658-3.98c1.107-1.077,2.492-1.615,4.157-1.615
		c1.006,0,1.914,0.199,2.725,0.597C58.419,157.239,59.083,157.797,59.601,158.515z"/>
	<path fill="#FFFFFF" d="M66.892,156.244c1.632,0,2.997,0.544,4.097,1.633s1.649,2.429,1.649,4.021c0,1.577-0.548,2.915-1.646,4.014
		c-1.097,1.099-2.434,1.648-4.013,1.648c-1.598,0-2.946-0.547-4.046-1.641c-1.099-1.094-1.648-2.417-1.648-3.97
		c0-1.035,0.25-1.995,0.751-2.878s1.184-1.576,2.049-2.076C64.95,156.495,65.885,156.244,66.892,156.244z M66.94,157.292
		c-0.797,0-1.553,0.208-2.267,0.623s-1.272,0.975-1.673,1.679s-0.602,1.488-0.602,2.353c0,1.28,0.443,2.361,1.332,3.243
		c0.887,0.882,1.957,1.323,3.209,1.323c0.836,0,1.61-0.203,2.322-0.608c0.711-0.406,1.266-0.96,1.664-1.664
		c0.399-0.704,0.599-1.485,0.599-2.346c0-0.855-0.199-1.628-0.599-2.32c-0.398-0.691-0.959-1.245-1.683-1.66
		S67.752,157.292,66.94,157.292z"/>
	<path fill="#FFFFFF" d="M74.308,167.289l1.542-10.774h0.176l4.38,8.84l4.337-8.84h0.174l1.55,10.774h-1.056l-1.064-7.705
		l-3.81,7.705h-0.275l-3.854-7.764l-1.059,7.764H74.308z"/>
	<path fill="#FFFFFF" d="M88.429,156.515h1.077v10.774h-1.077V156.515z"/>
	<path fill="#FFFFFF" d="M91.981,167.289v-10.774h0.234l7.171,8.259v-8.259h1.062v10.774h-0.241l-7.112-8.158v8.158H91.981z"/>
	<path fill="#FFFFFF" d="M113.463,158.324l-0.835,0.791c-0.601-0.591-1.259-1.039-1.974-1.344c-0.716-0.305-1.412-0.458-2.092-0.458
		c-0.844,0-1.648,0.208-2.413,0.623s-1.356,0.978-1.776,1.688c-0.42,0.711-0.629,1.461-0.629,2.252c0,0.811,0.217,1.581,0.651,2.311
		s1.035,1.304,1.802,1.721c0.767,0.418,1.606,0.626,2.52,0.626c1.108,0,2.046-0.313,2.813-0.938s1.221-1.436,1.362-2.432h-3.435
		v-1.04h4.643c-0.01,1.665-0.504,2.987-1.482,3.966c-0.979,0.979-2.289,1.468-3.93,1.468c-1.992,0-3.569-0.679-4.731-2.036
		c-0.894-1.045-1.341-2.253-1.341-3.625c0-1.021,0.257-1.97,0.77-2.849s1.216-1.566,2.109-2.062
		c0.894-0.495,1.904-0.743,3.032-0.743c0.913,0,1.772,0.165,2.578,0.494C111.911,157.068,112.697,157.597,113.463,158.324z"/>
	<path fill="#FFFFFF" d="M59.425,183.282l0.915-0.55c0.645,1.188,1.39,1.78,2.234,1.78c0.361,0,0.701-0.084,1.018-0.253
		c0.318-0.168,0.56-0.394,0.726-0.678c0.166-0.282,0.249-0.583,0.249-0.9c0-0.361-0.122-0.715-0.366-1.063
		c-0.337-0.478-0.952-1.055-1.846-1.729c-0.898-0.678-1.458-1.169-1.677-1.472c-0.381-0.508-0.572-1.057-0.572-1.647
		c0-0.469,0.113-0.896,0.338-1.282s0.54-0.689,0.947-0.912c0.408-0.222,0.852-0.333,1.33-0.333c0.508,0,0.982,0.126,1.424,0.377
		c0.442,0.252,0.91,0.715,1.403,1.389l-0.879,0.666c-0.405-0.537-0.751-0.891-1.036-1.063c-0.285-0.17-0.598-0.256-0.934-0.256
		c-0.436,0-0.791,0.132-1.066,0.396s-0.414,0.589-0.414,0.974c0,0.234,0.049,0.462,0.146,0.682s0.276,0.459,0.535,0.718
		c0.142,0.137,0.605,0.496,1.392,1.077c0.933,0.688,1.572,1.301,1.919,1.838s0.52,1.076,0.52,1.619c0,0.781-0.297,1.46-0.889,2.035
		c-0.594,0.577-1.315,0.865-2.165,0.865c-0.654,0-1.247-0.175-1.78-0.524C60.366,184.687,59.875,184.102,59.425,183.282z"/>
	<path fill="#FFFFFF" d="M73.139,174.244c1.633,0,2.998,0.545,4.098,1.633c1.1,1.09,1.648,2.43,1.648,4.021
		c0,1.577-0.548,2.915-1.645,4.014c-1.098,1.099-2.435,1.648-4.014,1.648c-1.598,0-2.945-0.547-4.045-1.641
		s-1.648-2.418-1.648-3.971c0-1.034,0.25-1.994,0.75-2.878c0.502-0.884,1.184-1.576,2.049-2.076
		C71.198,174.494,72.133,174.244,73.139,174.244z M73.188,175.291c-0.798,0-1.553,0.208-2.268,0.624
		c-0.714,0.415-1.271,0.975-1.672,1.678c-0.401,0.704-0.602,1.488-0.602,2.354c0,1.28,0.443,2.361,1.331,3.243
		s1.958,1.323,3.21,1.323c0.836,0,1.609-0.203,2.321-0.608s1.267-0.96,1.665-1.664c0.398-0.703,0.598-1.485,0.598-2.346
		c0-0.854-0.199-1.628-0.598-2.319s-0.959-1.245-1.684-1.66C74.767,175.499,74,175.291,73.188,175.291z"/>
	<path fill="#FFFFFF" d="M86.176,174.244c1.633,0,2.998,0.545,4.098,1.633c1.1,1.09,1.648,2.43,1.648,4.021
		c0,1.577-0.548,2.915-1.645,4.014c-1.098,1.099-2.435,1.648-4.014,1.648c-1.598,0-2.945-0.547-4.045-1.641
		s-1.648-2.418-1.648-3.971c0-1.034,0.25-1.994,0.75-2.878c0.502-0.884,1.184-1.576,2.049-2.076
		C84.235,174.494,85.17,174.244,86.176,174.244z M86.225,175.291c-0.798,0-1.553,0.208-2.268,0.624
		c-0.714,0.415-1.271,0.975-1.672,1.678c-0.401,0.704-0.602,1.488-0.602,2.354c0,1.28,0.443,2.361,1.331,3.243
		s1.958,1.323,3.21,1.323c0.836,0,1.609-0.203,2.321-0.608s1.267-0.96,1.665-1.664c0.398-0.703,0.598-1.485,0.598-2.346
		c0-0.854-0.199-1.628-0.598-2.319s-0.959-1.245-1.684-1.66C87.804,175.499,87.037,175.291,86.225,175.291z"/>
	<path fill="#FFFFFF" d="M94.09,185.289v-10.773h0.234l7.171,8.258v-8.258h1.062v10.773h-0.241l-7.112-8.158v8.158H94.09z"/>
</g>
<g>
	<path fill="#FFFFFF" d="M314.9,96.612l-0.85,0.652c-0.469-0.61-1.032-1.073-1.688-1.388c-0.656-0.314-1.378-0.472-2.164-0.472
		c-0.859,0-1.655,0.207-2.388,0.619c-0.732,0.413-1.3,0.967-1.702,1.663c-0.404,0.695-0.605,1.478-0.605,2.347
		c0,1.313,0.451,2.41,1.352,3.289s2.037,1.318,3.41,1.318c1.508,0,2.771-0.591,3.786-1.772l0.85,0.645
		c-0.537,0.684-1.208,1.212-2.011,1.586c-0.803,0.373-1.7,0.56-2.691,0.56c-1.885,0-3.371-0.627-4.461-1.882
		c-0.912-1.06-1.369-2.339-1.369-3.838c0-1.577,0.553-2.904,1.658-3.98c1.107-1.077,2.492-1.615,4.157-1.615
		c1.006,0,1.914,0.199,2.725,0.597C313.718,95.337,314.382,95.895,314.9,96.612z"/>
	<path fill="#FFFFFF" d="M322.191,94.342c1.632,0,2.997,0.544,4.097,1.633s1.649,2.429,1.649,4.021c0,1.577-0.548,2.915-1.646,4.014
		c-1.097,1.099-2.434,1.648-4.013,1.648c-1.598,0-2.946-0.547-4.046-1.641c-1.099-1.094-1.648-2.417-1.648-3.97
		c0-1.035,0.25-1.995,0.751-2.878s1.184-1.576,2.049-2.076C320.249,94.592,321.184,94.342,322.191,94.342z M322.239,95.389
		c-0.797,0-1.553,0.208-2.267,0.623s-1.272,0.975-1.673,1.679s-0.602,1.488-0.602,2.353c0,1.28,0.443,2.361,1.332,3.243
		c0.887,0.882,1.957,1.323,3.209,1.323c0.836,0,1.61-0.203,2.322-0.608c0.711-0.406,1.266-0.96,1.664-1.664
		c0.399-0.704,0.599-1.485,0.599-2.346c0-0.855-0.199-1.628-0.599-2.32c-0.398-0.691-0.959-1.245-1.683-1.66
		S323.051,95.389,322.239,95.389z"/>
	<path fill="#FFFFFF" d="M329.607,105.387l1.542-10.774h0.176l4.38,8.84l4.337-8.84h0.174l1.55,10.774h-1.056l-1.064-7.705
		l-3.81,7.705h-0.275l-3.854-7.764l-1.059,7.764H329.607z"/>
	<path fill="#FFFFFF" d="M343.728,94.613h1.077v10.774h-1.077V94.613z"/>
	<path fill="#FFFFFF" d="M347.28,105.387V94.613h0.234l7.171,8.259v-8.259h1.062v10.774h-0.241l-7.112-8.158v8.158H347.28z"/>
	<path fill="#FFFFFF" d="M368.762,96.422l-0.835,0.791c-0.601-0.591-1.259-1.039-1.974-1.344c-0.716-0.305-1.412-0.458-2.092-0.458
		c-0.844,0-1.648,0.208-2.413,0.623s-1.356,0.978-1.776,1.688c-0.42,0.711-0.629,1.461-0.629,2.252c0,0.811,0.217,1.581,0.651,2.311
		s1.035,1.304,1.802,1.721c0.767,0.418,1.606,0.626,2.52,0.626c1.108,0,2.046-0.313,2.813-0.938s1.221-1.436,1.362-2.432h-3.435
		v-1.04h4.643c-0.01,1.665-0.504,2.987-1.482,3.966c-0.979,0.979-2.289,1.468-3.93,1.468c-1.992,0-3.569-0.679-4.731-2.036
		c-0.894-1.045-1.341-2.253-1.341-3.625c0-1.021,0.257-1.97,0.77-2.849s1.216-1.566,2.109-2.062
		c0.894-0.495,1.904-0.743,3.032-0.743c0.913,0,1.772,0.165,2.578,0.494C367.209,95.166,367.996,95.694,368.762,96.422z"/>
	<path fill="#FFFFFF" d="M314.724,121.379l0.915-0.55c0.645,1.188,1.39,1.78,2.234,1.78c0.361,0,0.701-0.084,1.018-0.253
		c0.318-0.168,0.56-0.394,0.726-0.678c0.166-0.282,0.249-0.583,0.249-0.9c0-0.361-0.122-0.715-0.366-1.063
		c-0.337-0.478-0.952-1.055-1.846-1.729c-0.898-0.678-1.458-1.169-1.677-1.472c-0.381-0.508-0.572-1.057-0.572-1.647
		c0-0.469,0.113-0.896,0.338-1.282s0.54-0.689,0.947-0.912c0.408-0.222,0.852-0.333,1.33-0.333c0.508,0,0.982,0.126,1.424,0.377
		c0.442,0.252,0.91,0.715,1.403,1.389l-0.879,0.666c-0.405-0.537-0.751-0.891-1.036-1.063c-0.285-0.17-0.598-0.256-0.934-0.256
		c-0.436,0-0.791,0.132-1.066,0.396s-0.414,0.589-0.414,0.974c0,0.234,0.049,0.462,0.146,0.682s0.276,0.459,0.535,0.718
		c0.142,0.137,0.605,0.496,1.392,1.077c0.933,0.688,1.572,1.301,1.919,1.838s0.52,1.076,0.52,1.619c0,0.781-0.297,1.46-0.889,2.035
		c-0.594,0.577-1.315,0.865-2.165,0.865c-0.654,0-1.247-0.175-1.78-0.524C315.665,122.785,315.173,122.2,314.724,121.379z"/>
	<path fill="#FFFFFF" d="M328.438,112.341c1.633,0,2.998,0.545,4.098,1.633c1.1,1.09,1.648,2.43,1.648,4.021
		c0,1.577-0.548,2.915-1.645,4.014c-1.098,1.099-2.435,1.648-4.014,1.648c-1.598,0-2.945-0.547-4.045-1.641
		s-1.648-2.418-1.648-3.971c0-1.034,0.25-1.994,0.75-2.878c0.502-0.884,1.184-1.576,2.049-2.076
		C326.497,112.591,327.432,112.341,328.438,112.341z M328.487,113.388c-0.798,0-1.553,0.208-2.268,0.624
		c-0.714,0.415-1.271,0.975-1.672,1.678c-0.401,0.704-0.602,1.488-0.602,2.354c0,1.28,0.443,2.361,1.331,3.243
		s1.958,1.323,3.21,1.323c0.836,0,1.609-0.203,2.321-0.608s1.267-0.96,1.665-1.664c0.398-0.703,0.598-1.485,0.598-2.346
		c0-0.854-0.199-1.628-0.598-2.319s-0.959-1.245-1.684-1.66C330.066,113.596,329.298,113.388,328.487,113.388z"/>
	<path fill="#FFFFFF" d="M341.475,112.341c1.633,0,2.998,0.545,4.098,1.633c1.1,1.09,1.648,2.43,1.648,4.021
		c0,1.577-0.548,2.915-1.645,4.014c-1.098,1.099-2.435,1.648-4.014,1.648c-1.598,0-2.945-0.547-4.045-1.641
		s-1.648-2.418-1.648-3.971c0-1.034,0.25-1.994,0.75-2.878c0.502-0.884,1.184-1.576,2.049-2.076
		C339.534,112.591,340.469,112.341,341.475,112.341z M341.524,113.388c-0.798,0-1.553,0.208-2.268,0.624
		c-0.714,0.415-1.271,0.975-1.672,1.678c-0.401,0.704-0.602,1.488-0.602,2.354c0,1.28,0.443,2.361,1.331,3.243
		s1.958,1.323,3.21,1.323c0.836,0,1.609-0.203,2.321-0.608s1.267-0.96,1.665-1.664c0.398-0.703,0.598-1.485,0.598-2.346
		c0-0.854-0.199-1.628-0.598-2.319s-0.959-1.245-1.684-1.66C343.103,113.596,342.335,113.388,341.524,113.388z"/>
	<path fill="#FFFFFF" d="M349.389,123.386v-10.773h0.234l7.171,8.258v-8.258h1.062v10.773h-0.241l-7.112-8.158v8.158H349.389z"/>
</g>
<g>
	<path fill="#FFFFFF" d="M364.221,268.638l-0.85,0.651c-0.469-0.609-1.031-1.072-1.688-1.388c-0.658-0.314-1.379-0.472-2.165-0.472
		c-0.859,0-1.655,0.206-2.388,0.618c-0.732,0.413-1.301,0.967-1.703,1.663c-0.402,0.695-0.604,1.479-0.604,2.348
		c0,1.313,0.449,2.409,1.352,3.288c0.9,0.879,2.037,1.318,3.408,1.318c1.51,0,2.771-0.591,3.787-1.772l0.85,0.645
		c-0.537,0.684-1.207,1.212-2.01,1.586c-0.805,0.373-1.701,0.561-2.692,0.561c-1.885,0-3.372-0.628-4.46-1.883
		c-0.914-1.06-1.37-2.339-1.37-3.838c0-1.577,0.554-2.904,1.659-3.98c1.105-1.077,2.491-1.615,4.156-1.615
		c1.006,0,1.914,0.199,2.725,0.597C363.04,267.363,363.704,267.92,364.221,268.638z"/>
	<path fill="#FFFFFF" d="M371.512,266.368c1.632,0,2.998,0.545,4.098,1.633c1.099,1.09,1.648,2.43,1.648,4.021
		c0,1.577-0.549,2.915-1.646,4.014s-2.435,1.648-4.013,1.648c-1.598,0-2.945-0.547-4.045-1.641s-1.649-2.418-1.649-3.971
		c0-1.035,0.251-1.994,0.751-2.878c0.501-0.884,1.184-1.575,2.049-2.076S370.506,266.368,371.512,266.368z M371.56,267.415
		c-0.798,0-1.553,0.208-2.267,0.623c-0.715,0.416-1.271,0.976-1.673,1.68c-0.401,0.703-0.602,1.487-0.602,2.353
		c0,1.28,0.444,2.361,1.331,3.243c0.889,0.883,1.958,1.323,3.21,1.323c0.837,0,1.61-0.202,2.321-0.608
		c0.712-0.406,1.268-0.96,1.666-1.664c0.398-0.703,0.598-1.485,0.598-2.346c0-0.855-0.199-1.629-0.598-2.32s-0.96-1.244-1.684-1.66
		C373.139,267.623,372.372,267.415,371.56,267.415z"/>
	<path fill="#FFFFFF" d="M378.928,277.413l1.543-10.773h0.175l4.38,8.84l4.338-8.84h0.172l1.551,10.773h-1.056l-1.064-7.705
		l-3.81,7.705h-0.275l-3.854-7.764l-1.059,7.764H378.928z"/>
	<path fill="#FFFFFF" d="M393.049,266.639h1.076v10.773h-1.076V266.639z"/>
	<path fill="#FFFFFF" d="M396.602,277.413v-10.773h0.234l7.17,8.258v-8.258h1.063v10.773h-0.242l-7.111-8.158v8.158H396.602z"/>
	<path fill="#FFFFFF" d="M418.083,268.448l-0.835,0.791c-0.601-0.591-1.259-1.039-1.974-1.344c-0.716-0.305-1.413-0.458-2.091-0.458
		c-0.846,0-1.65,0.208-2.414,0.622c-0.764,0.416-1.355,0.979-1.775,1.688c-0.42,0.711-0.631,1.462-0.631,2.253
		c0,0.811,0.218,1.58,0.652,2.311s1.035,1.304,1.802,1.721c0.767,0.418,1.606,0.627,2.52,0.627c1.108,0,2.046-0.313,2.813-0.938
		s1.221-1.436,1.362-2.432h-3.436v-1.041h4.645c-0.01,1.666-0.505,2.988-1.483,3.967c-0.979,0.979-2.289,1.469-3.93,1.469
		c-1.992,0-3.569-0.68-4.731-2.037c-0.894-1.045-1.34-2.253-1.34-3.625c0-1.021,0.256-1.971,0.769-2.85s1.216-1.565,2.109-2.062
		c0.894-0.495,1.904-0.743,3.032-0.743c0.913,0,1.772,0.165,2.578,0.494C416.531,267.192,417.317,267.72,418.083,268.448z"/>
	<path fill="#FFFFFF" d="M364.045,293.405l0.916-0.549c0.645,1.188,1.389,1.779,2.233,1.779c0.361,0,0.7-0.084,1.019-0.252
		c0.316-0.168,0.559-0.395,0.725-0.678s0.249-0.584,0.249-0.9c0-0.361-0.122-0.715-0.366-1.063
		c-0.337-0.479-0.952-1.055-1.846-1.729c-0.898-0.678-1.457-1.17-1.678-1.473c-0.381-0.508-0.57-1.057-0.57-1.646
		c0-0.469,0.111-0.896,0.336-1.283c0.225-0.385,0.541-0.689,0.949-0.912c0.407-0.221,0.851-0.332,1.329-0.332
		c0.508,0,0.982,0.125,1.425,0.377c0.441,0.252,0.909,0.715,1.402,1.389l-0.879,0.666c-0.405-0.537-0.75-0.891-1.037-1.063
		c-0.285-0.17-0.596-0.256-0.934-0.256c-0.434,0-0.789,0.131-1.064,0.395c-0.277,0.264-0.414,0.59-0.414,0.975
		c0,0.234,0.049,0.461,0.146,0.682c0.098,0.219,0.275,0.459,0.534,0.717c0.142,0.137,0.605,0.496,1.392,1.078
		c0.933,0.688,1.572,1.301,1.919,1.838s0.521,1.076,0.521,1.619c0,0.781-0.297,1.459-0.891,2.035s-1.314,0.865-2.164,0.865
		c-0.654,0-1.248-0.176-1.779-0.525C364.985,294.811,364.495,294.225,364.045,293.405z"/>
	<path fill="#FFFFFF" d="M377.76,284.368c1.631,0,2.997,0.545,4.097,1.633c1.099,1.09,1.649,2.43,1.649,4.021
		c0,1.576-0.549,2.914-1.646,4.014c-1.096,1.098-2.434,1.648-4.012,1.648c-1.598,0-2.946-0.547-4.046-1.641
		c-1.099-1.094-1.649-2.418-1.649-3.971c0-1.035,0.251-1.994,0.752-2.879c0.5-0.883,1.184-1.576,2.049-2.076
		C375.818,284.618,376.753,284.368,377.76,284.368z M377.807,285.415c-0.797,0-1.553,0.207-2.266,0.623
		c-0.715,0.416-1.272,0.975-1.674,1.678c-0.4,0.705-0.602,1.488-0.602,2.354c0,1.281,0.444,2.361,1.332,3.244
		c0.888,0.881,1.957,1.322,3.209,1.322c0.837,0,1.611-0.203,2.322-0.607c0.711-0.406,1.267-0.961,1.665-1.664
		c0.399-0.703,0.599-1.486,0.599-2.346c0-0.855-0.199-1.629-0.599-2.32c-0.398-0.691-0.96-1.244-1.683-1.66
		C379.387,285.622,378.62,285.415,377.807,285.415z"/>
	<path fill="#FFFFFF" d="M390.797,284.368c1.631,0,2.997,0.545,4.097,1.633c1.099,1.09,1.649,2.43,1.649,4.021
		c0,1.576-0.549,2.914-1.646,4.014c-1.096,1.098-2.434,1.648-4.012,1.648c-1.598,0-2.946-0.547-4.046-1.641
		c-1.099-1.094-1.649-2.418-1.649-3.971c0-1.035,0.251-1.994,0.752-2.879c0.5-0.883,1.184-1.576,2.049-2.076
		C388.855,284.618,389.791,284.368,390.797,284.368z M390.844,285.415c-0.797,0-1.553,0.207-2.266,0.623
		c-0.715,0.416-1.272,0.975-1.674,1.678c-0.4,0.705-0.602,1.488-0.602,2.354c0,1.281,0.444,2.361,1.332,3.244
		c0.888,0.881,1.957,1.322,3.209,1.322c0.837,0,1.611-0.203,2.322-0.607c0.711-0.406,1.267-0.961,1.665-1.664
		c0.399-0.703,0.599-1.486,0.599-2.346c0-0.855-0.199-1.629-0.599-2.32c-0.398-0.691-0.96-1.244-1.683-1.66
		C392.424,285.622,391.657,285.415,390.844,285.415z"/>
	<path fill="#FFFFFF" d="M398.711,295.413v-10.773h0.234l7.17,8.258v-8.258h1.063v10.773h-0.242l-7.111-8.158v8.158H398.711z"/>
</g>
</svg>
