<?xml version="1.0" encoding="utf-8"?>
<!-- Generator: Adobe Illustrator 16.0.0, SVG Export Plug-In . SVG Version: 6.00 Build 0)  -->
<!DOCTYPE svg PUBLIC "-//W3C//DTD SVG 1.1//EN" "http://www.w3.org/Graphics/SVG/1.1/DTD/svg11.dtd">
<svg version="1.1" id="Layer_1" xmlns="http://www.w3.org/2000/svg" xmlns:xlink="http://www.w3.org/1999/xlink" x="0px" y="0px"
	 width="648.425px" height="403.732px" viewBox="0 0 648.425 403.732" enable-background="new 0 0 648.425 403.732"
	 xml:space="preserve">
<g>
	<polygon fill="#58595B" points="106.75,42.568 262.917,-0.813 262.917,340.708 106.75,333.609 	"/>
	<polygon fill="#414042" points="252.666,14.173 116.215,48.877 116.215,325.722 252.666,332.033 	"/>
	<ellipse fill="none" stroke="#191919" stroke-miterlimit="10" cx="180.101" cy="208" rx="45.746" ry="57.945"/>
	<path fill="#A7A9AC" d="M243.988,208c0,39.451-25.246,71.432-56.395,71.432c-31.142,0-56.394-31.98-56.394-71.432
		s25.252-71.432,56.394-71.432C218.742,136.568,243.988,168.548,243.988,208z"/>
	<ellipse fill="#262626" cx="185.886" cy="208" rx="54.687" ry="69.27"/>
	<path fill="#A7A9AC" d="M225.847,208c0,31.541-20.184,57.117-45.086,57.117c-24.902,0-45.091-25.576-45.091-57.117
		c0-31.545,20.189-57.113,45.091-57.113C205.664,150.886,225.847,176.455,225.847,208z"/>
	<ellipse fill="#939598" cx="182.105" cy="208" rx="39.469" ry="49.996"/>
	<path fill="#808285" d="M221.574,208c0,24.572-15.727,44.5-35.131,44.5c-19.398,0-35.128-19.928-35.128-44.5
		c0-24.576,15.73-44.498,35.128-44.498C205.847,163.501,221.574,183.423,221.574,208z"/>
	<ellipse fill="#6D6E71" cx="190.159" cy="208" rx="28.985" ry="36.717"/>
	<ellipse fill="#58595B" cx="192.525" cy="208" rx="24.254" ry="30.723"/>
	<path fill="#FFFFFF" d="M213.23,208c0,11.588-7.416,20.98-16.566,20.98c-9.146,0-16.561-9.393-16.561-20.98
		s7.414-20.979,16.561-20.979C205.814,187.021,213.23,196.412,213.23,208z"/>
	<polygon fill="#262626" points="146.976,293.779 229.396,293.779 229.396,315.863 146.976,312.312 	"/>
	<polygon fill="#414042" points="262.917,-0.813 339.425,50.455 339.425,328.089 262.917,340.708 	"/>
	<path fill="none" stroke="#191919" stroke-miterlimit="10" d="M206.269,82.592c0,15.62-10,28.283-22.33,28.283
		c-12.332,0-22.332-12.664-22.332-28.283c0-15.621,10-28.284,22.332-28.284C196.269,54.308,206.269,66.971,206.269,82.592z"/>
	<path fill="#A7A9AC" d="M215.121,82.592c0,19.255-12.322,34.865-27.527,34.865c-15.199,0-27.523-15.61-27.523-34.865
		c0-19.257,12.324-34.866,27.523-34.866C202.798,47.726,215.121,63.334,215.121,82.592z"/>
	<ellipse fill="#262626" cx="186.761" cy="82.592" rx="26.691" ry="33.81"/>
	<ellipse fill="#A7A9AC" cx="184.26" cy="82.592" rx="22.009" ry="27.878"/>
	<ellipse fill="#939598" cx="184.916" cy="82.592" rx="19.266" ry="24.402"/>
	<ellipse fill="#808285" cx="187.034" cy="82.592" rx="17.147" ry="21.721"/>
	<ellipse fill="#6D6E71" cx="188.845" cy="82.592" rx="14.148" ry="17.92"/>
	<path fill="#58595B" d="M201.839,82.592c0,8.281-5.299,14.994-11.84,14.994c-6.535,0-11.836-6.713-11.836-14.994
		c0-8.282,5.301-14.995,11.836-14.995C196.541,67.597,201.839,74.31,201.839,82.592z"/>
	<ellipse fill="#FFFFFF" cx="192.023" cy="82.592" rx="8.084" ry="10.241"/>
	<polygon fill="#262626" points="252.666,18.906 120.159,53.611 120.159,325.904 116.215,325.722 116.215,48.877 252.666,14.173 	
		"/>
</g>
<g>
	<polygon fill="#58595B" points="555.917,94.514 428.191,59.035 428.191,338.355 555.917,332.548 	"/>
	<polygon fill="#414042" points="436.578,71.291 548.177,99.675 548.177,326.099 436.578,331.259 	"/>
	<path fill="none" stroke="#191919" stroke-miterlimit="10" d="M458.507,229.816c0,26.174,16.752,47.395,37.418,47.395
		c20.66,0,37.414-21.221,37.414-47.395s-16.754-47.393-37.414-47.393C475.259,182.423,458.507,203.642,458.507,229.816z"/>
	<ellipse fill="#A7A9AC" cx="489.796" cy="229.816" rx="46.123" ry="58.424"/>
	<ellipse fill="#262626" cx="491.193" cy="229.816" rx="44.727" ry="56.654"/>
	<path fill="#A7A9AC" d="M458.507,229.816c0,25.797,16.51,46.715,36.879,46.715c20.367,0,36.879-20.918,36.879-46.715
		c0-25.799-16.512-46.713-36.879-46.713C475.017,183.103,458.507,204.017,458.507,229.816z"/>
	<ellipse fill="#939598" cx="494.287" cy="229.816" rx="32.281" ry="40.891"/>
	<path fill="#808285" d="M462.005,229.816c0,20.098,12.861,36.396,28.732,36.396c15.865,0,28.732-16.299,28.732-36.396
		c0-20.1-12.867-36.393-28.732-36.393C474.867,193.423,462.005,209.716,462.005,229.816z"/>
	<ellipse fill="#6D6E71" cx="487.7" cy="229.816" rx="23.706" ry="30.029"/>
	<path fill="#58595B" d="M465.927,229.816c0,13.877,8.881,25.129,19.838,25.129c10.951,0,19.836-11.252,19.836-25.129
		c0-13.875-8.885-25.125-19.836-25.125C474.808,204.691,465.927,215.941,465.927,229.816z"/>
	<ellipse fill="#FFFFFF" cx="482.377" cy="229.816" rx="13.548" ry="17.16"/>
	<polygon fill="#262626" points="523.019,299.974 455.607,299.974 455.607,318.037 523.019,315.132 	"/>
	<polygon fill="#6D6E71" points="428.191,59.035 365.619,100.964 365.619,328.035 428.191,338.355 	"/>
	<ellipse fill="none" stroke="#191919" stroke-miterlimit="10" cx="492.788" cy="127.248" rx="18.263" ry="23.133"/>
	<ellipse fill="#A7A9AC" cx="489.796" cy="127.248" rx="22.514" ry="28.518"/>
	<ellipse fill="#262626" cx="490.479" cy="127.248" rx="21.831" ry="27.654"/>
	<ellipse fill="#A7A9AC" cx="492.524" cy="127.248" rx="17.999" ry="22.801"/>
	<ellipse fill="#939598" cx="491.988" cy="127.248" rx="15.758" ry="19.959"/>
	<path fill="#808285" d="M476.23,127.248c0,9.811,6.279,17.766,14.027,17.766c7.742,0,14.023-7.955,14.023-17.766
		c0-9.81-6.281-17.763-14.023-17.763C482.509,109.484,476.23,117.438,476.23,127.248z"/>
	<ellipse fill="#6D6E71" cx="488.772" cy="127.248" rx="11.571" ry="14.658"/>
	<path fill="#58595B" d="M478.146,127.248c0,6.775,4.336,12.266,9.68,12.266c5.35,0,9.684-5.49,9.684-12.266
		c0-6.771-4.334-12.263-9.684-12.263C482.482,114.984,478.146,120.476,478.146,127.248z"/>
	<path fill="#FFFFFF" d="M479.564,127.248c0,4.625,2.959,8.377,6.609,8.377c3.654,0,6.613-3.752,6.613-8.377
		s-2.959-8.375-6.613-8.375C482.523,118.873,479.564,122.623,479.564,127.248z"/>
	<polygon fill="#262626" points="436.578,75.162 544.951,103.546 544.951,326.248 548.177,326.099 548.177,99.675 436.578,71.291 	
		"/>
</g>
</svg>
