<?xml version="1.0" encoding="utf-8"?>
<!-- Generator: Adobe Illustrator 16.0.0, SVG Export Plug-In . SVG Version: 6.00 Build 0)  -->
<!DOCTYPE svg PUBLIC "-//W3C//DTD SVG 1.1//EN" "http://www.w3.org/Graphics/SVG/1.1/DTD/svg11.dtd">
<svg version="1.1" id="Layer_1" xmlns="http://www.w3.org/2000/svg" xmlns:xlink="http://www.w3.org/1999/xlink" x="0px" y="0px"
	 width="388.715px" height="205.674px" viewBox="0 0 388.715 205.674" enable-background="new 0 0 388.715 205.674"
	 xml:space="preserve">
<g>
	<polygon fill="#F3AC1E" points="194.785,0 147.015,205.669 94.36,205.674 62.435,138.499 	"/>
	<polygon fill="#B04935" points="194.785,0 194.798,205.665 147.015,205.669 	"/>
	<polygon fill="#F3AC1E" points="194.785,0 242.588,205.662 295.241,205.661 327.156,138.481 	"/>
	<g>
		<line x1="389.601" y1="203.882" x2="327.156" y2="138.481"/>
		<path fill="#FFFFFF" d="M389.601,203.882c0,0-1.039-0.961-2.823-2.677c-1.77-1.729-4.339-4.159-7.348-7.147
			c-3.02-2.977-6.512-6.479-10.223-10.263c-1.85-1.896-3.761-3.856-5.703-5.848c-1.929-2.004-3.889-4.04-5.849-6.075
			c-1.943-2.052-3.887-4.104-5.8-6.123c-1.92-2.012-3.768-4.033-5.579-5.967c-3.608-3.88-6.945-7.53-9.779-10.686
			c-2.847-3.143-5.154-5.823-6.8-7.671c-1.631-1.861-2.542-2.944-2.542-2.944s1.04,0.961,2.824,2.676
			c1.77,1.729,4.34,4.158,7.348,7.146c3.021,2.977,6.514,6.479,10.223,10.263c1.849,1.898,3.781,3.838,5.703,5.849
			c1.929,2.005,3.889,4.041,5.848,6.076c1.943,2.052,3.886,4.104,5.799,6.124c1.899,2.032,3.77,4.031,5.578,5.967
			c3.607,3.882,6.945,7.531,9.779,10.687c2.846,3.144,5.155,5.822,6.801,7.669C388.689,202.8,389.601,203.882,389.601,203.882z"/>
	</g>
	<polygon fill="#B04935" points="194.785,0 194.8,205.665 260.288,205.661 	"/>
	<g>
		<line x1="377.096" y1="205.652" x2="388.715" y2="183.754"/>
		<path fill="#F3AC1E" d="M376.919,205.559c0,0,0.516-1.48,1.363-3.662c0.417-1.094,0.898-2.373,1.451-3.724
			c0.533-1.362,1.154-2.786,1.759-4.22c0.623-1.423,1.049-2.951,1.706-4.247c0.671-1.288,1.511-2.377,2.282-3.283
			c0.778-0.902,1.528-1.602,2.102-2.064c0.568-0.466,0.956-0.698,0.956-0.698l0.354,0.188c0,0,0.025,0.452-0.043,1.184
			c-0.062,0.734-0.219,1.747-0.53,2.897c-0.318,1.146-0.749,2.452-1.439,3.73c-0.705,1.271-1.731,2.479-2.561,3.794
			c-0.849,1.304-1.679,2.617-2.508,3.821c-0.81,1.215-1.598,2.331-2.271,3.29c-1.33,1.925-2.268,3.182-2.268,3.182L376.919,205.559z
			"/>
	</g>
	<g>
		<line x1="0" y1="203.023" x2="62.436" y2="137.615"/>
		<path fill="#FFFFFF" d="M0,203.023c0,0,0.912-1.083,2.543-2.944c1.645-1.848,3.954-4.526,6.799-7.67
			c2.833-3.155,6.171-6.806,9.777-10.688c1.809-1.936,3.678-3.936,5.578-5.969c1.913-2.02,3.855-4.071,5.798-6.124
			c1.959-2.036,3.918-4.072,5.847-6.076c1.921-2.012,3.854-3.951,5.702-5.85c3.709-3.784,7.201-7.287,10.221-10.265
			c3.007-2.988,5.578-5.418,7.347-7.147c1.784-1.715,2.824-2.676,2.824-2.676s-0.912,1.083-2.542,2.945
			c-1.645,1.848-3.952,4.528-6.798,7.671c-2.833,3.155-6.17,6.807-9.778,10.688c-1.811,1.934-3.658,3.955-5.579,5.967
			c-1.913,2.02-3.855,4.072-5.798,6.124c-1.959,2.035-3.919,4.071-5.848,6.075c-1.942,1.992-3.853,3.952-5.702,5.85
			c-3.71,3.783-7.202,7.286-10.222,10.264c-3.008,2.988-5.577,5.419-7.346,7.148C1.039,202.063,0,203.023,0,203.023z"/>
	</g>
	<g>
		<line x1="12.505" y1="204.792" x2="0.882" y2="182.898"/>
		<path fill="#F3AC1E" d="M12.328,204.886c0,0-0.938-1.256-2.269-3.181c-0.672-0.958-1.461-2.074-2.271-3.289
			c-0.829-1.204-1.66-2.518-2.509-3.82c-0.83-1.313-1.856-2.523-2.562-3.793c-0.69-1.278-1.122-2.584-1.439-3.73
			c-0.312-1.15-0.469-2.162-0.531-2.896c-0.068-0.731-0.043-1.184-0.043-1.184l0.354-0.188c0,0,0.388,0.232,0.956,0.698
			c0.574,0.463,1.324,1.161,2.102,2.063c0.772,0.905,1.612,1.994,2.284,3.282c0.657,1.296,1.083,2.823,1.707,4.246
			c0.604,1.434,1.226,2.857,1.759,4.219c0.553,1.351,1.036,2.63,1.453,3.724c0.848,2.181,1.363,3.661,1.364,3.661L12.328,204.886z"
			/>
	</g>
	<polygon fill="#CB7729" points="260.288,205.661 282.009,184.098 194.785,0 	"/>
</g>
</svg>
