<?xml version="1.0" encoding="utf-8"?>
<!-- Generator: Adobe Illustrator 16.0.0, SVG Export Plug-In . SVG Version: 6.00 Build 0)  -->
<!DOCTYPE svg PUBLIC "-//W3C//DTD SVG 1.1//EN" "http://www.w3.org/Graphics/SVG/1.1/DTD/svg11.dtd">
<svg version="1.1" id="Layer_1" xmlns="http://www.w3.org/2000/svg" xmlns:xlink="http://www.w3.org/1999/xlink" x="0px" y="0px"
	 width="648.425px" height="403.732px" viewBox="0 0 648.425 403.732" enable-background="new 0 0 648.425 403.732"
	 xml:space="preserve">
<polygon fill="#8B5E3C" points="648.425,347.522 0,347.522 44.422,313.603 614.958,313.603 "/>
<rect y="347.522" fill="#603913" width="648.425" height="56.21"/>
<g>
	<polygon fill="#58595B" points="99.75,43.381 255.917,0 255.917,341.521 99.75,334.421 	"/>
	<polygon fill="#414042" points="245.666,14.986 109.215,49.69 109.215,326.534 245.666,332.847 	"/>
	<ellipse fill="none" stroke="#191919" stroke-miterlimit="10" cx="173.101" cy="208.813" rx="45.746" ry="57.944"/>
	<path fill="#A7A9AC" d="M236.988,208.813c0,39.451-25.246,71.432-56.395,71.432c-31.142,0-56.394-31.98-56.394-71.432
		c0-39.453,25.252-71.433,56.394-71.433C211.742,137.381,236.988,169.361,236.988,208.813z"/>
	<ellipse fill="#262626" cx="178.886" cy="208.813" rx="54.687" ry="69.27"/>
	<path fill="#A7A9AC" d="M218.847,208.813c0,31.541-20.184,57.117-45.086,57.117c-24.902,0-45.091-25.576-45.091-57.117
		c0-31.545,20.189-57.113,45.091-57.113C198.664,151.699,218.847,177.268,218.847,208.813z"/>
	<ellipse fill="#939598" cx="175.105" cy="208.813" rx="39.469" ry="49.996"/>
	<path fill="#808285" d="M214.574,208.813c0,24.572-15.727,44.5-35.131,44.5c-19.398,0-35.128-19.928-35.128-44.5
		c0-24.577,15.73-44.499,35.128-44.499C198.847,164.314,214.574,184.236,214.574,208.813z"/>
	<ellipse fill="#6D6E71" cx="183.159" cy="208.813" rx="28.985" ry="36.717"/>
	<ellipse fill="#58595B" cx="185.525" cy="208.813" rx="24.254" ry="30.723"/>
	<path fill="#FFFFFF" d="M206.23,208.813c0,11.588-7.416,20.979-16.566,20.979c-9.146,0-16.561-9.393-16.561-20.979
		c0-11.587,7.414-20.98,16.561-20.98C198.814,187.833,206.23,197.225,206.23,208.813z"/>
	<polygon fill="#262626" points="139.976,294.591 222.396,294.591 222.396,316.675 139.976,313.124 	"/>
	<polygon fill="#414042" points="255.917,0 332.425,51.268 332.425,328.901 255.917,341.521 	"/>
	<path fill="none" stroke="#191919" stroke-miterlimit="10" d="M199.269,83.405c0,15.62-10,28.283-22.33,28.283
		c-12.332,0-22.332-12.664-22.332-28.283c0-15.621,10-28.284,22.332-28.284C189.269,55.121,199.269,67.784,199.269,83.405z"/>
	<path fill="#A7A9AC" d="M208.121,83.405c0,19.255-12.322,34.865-27.527,34.865c-15.199,0-27.523-15.61-27.523-34.865
		c0-19.257,12.324-34.866,27.523-34.866C195.798,48.539,208.121,64.147,208.121,83.405z"/>
	<ellipse fill="#262626" cx="179.761" cy="83.405" rx="26.691" ry="33.81"/>
	<ellipse fill="#A7A9AC" cx="177.26" cy="83.405" rx="22.009" ry="27.878"/>
	<ellipse fill="#939598" cx="177.916" cy="83.405" rx="19.266" ry="24.402"/>
	<ellipse fill="#808285" cx="180.034" cy="83.405" rx="17.147" ry="21.721"/>
	<ellipse fill="#6D6E71" cx="181.845" cy="83.405" rx="14.148" ry="17.92"/>
	<path fill="#58595B" d="M194.839,83.405c0,8.281-5.299,14.994-11.84,14.994c-6.535,0-11.836-6.713-11.836-14.994
		c0-8.282,5.301-14.995,11.836-14.995C189.541,68.41,194.839,75.123,194.839,83.405z"/>
	<ellipse fill="#FFFFFF" cx="185.023" cy="83.405" rx="8.084" ry="10.241"/>
	<polygon fill="#262626" points="245.666,19.719 113.159,54.424 113.159,326.716 109.215,326.534 109.215,49.69 245.666,14.986 	"/>
</g>
<g>
	<polygon fill="#58595B" points="548.917,95.327 421.191,59.848 421.191,339.167 548.917,333.36 	"/>
	<polygon fill="#414042" points="429.578,72.104 541.177,100.488 541.177,326.911 429.578,332.071 	"/>
	<path fill="none" stroke="#191919" stroke-miterlimit="10" d="M451.507,230.628c0,26.176,16.752,47.396,37.418,47.396
		c20.66,0,37.414-21.221,37.414-47.396c0-26.174-16.754-47.392-37.414-47.392C468.259,183.236,451.507,204.454,451.507,230.628z"/>
	<ellipse fill="#A7A9AC" cx="482.796" cy="230.629" rx="46.123" ry="58.425"/>
	<ellipse fill="#262626" cx="484.193" cy="230.629" rx="44.727" ry="56.654"/>
	<path fill="#A7A9AC" d="M451.507,230.628c0,25.797,16.51,46.717,36.879,46.717c20.367,0,36.879-20.92,36.879-46.717
		c0-25.799-16.512-46.712-36.879-46.712C468.017,183.916,451.507,204.829,451.507,230.628z"/>
	<ellipse fill="#939598" cx="487.287" cy="230.629" rx="32.281" ry="40.891"/>
	<path fill="#808285" d="M455.005,230.628c0,20.1,12.861,36.396,28.732,36.396c15.863,0,28.73-16.299,28.73-36.396
		c0-20.1-12.867-36.392-28.73-36.392C467.867,194.236,455.005,210.528,455.005,230.628z"/>
	<ellipse fill="#6D6E71" cx="480.701" cy="230.629" rx="23.705" ry="30.029"/>
	<path fill="#58595B" d="M458.927,230.628c0,13.877,8.881,25.129,19.838,25.129c10.951,0,19.836-11.252,19.836-25.129
		c0-13.875-8.885-25.125-19.836-25.125C467.808,205.503,458.927,216.753,458.927,230.628z"/>
	<ellipse fill="#FFFFFF" cx="475.376" cy="230.629" rx="13.549" ry="17.159"/>
	<polygon fill="#262626" points="516.019,300.786 448.607,300.786 448.607,318.851 516.019,315.944 	"/>
	<polygon fill="#6D6E71" points="421.191,59.848 358.619,101.777 358.619,328.849 421.191,339.167 	"/>
	<ellipse fill="none" stroke="#191919" stroke-miterlimit="10" cx="485.789" cy="128.061" rx="18.262" ry="23.133"/>
	<ellipse fill="#A7A9AC" cx="482.796" cy="128.061" rx="22.514" ry="28.518"/>
	<ellipse fill="#262626" cx="483.478" cy="128.061" rx="21.832" ry="27.654"/>
	<ellipse fill="#A7A9AC" cx="485.525" cy="128.061" rx="17.998" ry="22.801"/>
	<ellipse fill="#939598" cx="484.988" cy="128.061" rx="15.758" ry="19.959"/>
	<path fill="#808285" d="M469.23,128.061c0,9.811,6.279,17.766,14.027,17.766c7.742,0,14.023-7.955,14.023-17.766
		c0-9.81-6.281-17.763-14.023-17.763C475.509,110.297,469.23,118.251,469.23,128.061z"/>
	<ellipse fill="#6D6E71" cx="481.773" cy="128.061" rx="11.57" ry="14.658"/>
	<path fill="#58595B" d="M471.146,128.061c0,6.775,4.336,12.266,9.68,12.266c5.35,0,9.684-5.49,9.684-12.266
		c0-6.771-4.334-12.263-9.684-12.263C475.482,115.797,471.146,121.289,471.146,128.061z"/>
	<path fill="#FFFFFF" d="M472.564,128.061c0,4.625,2.959,8.377,6.609,8.377c3.654,0,6.613-3.752,6.613-8.377
		s-2.959-8.375-6.613-8.375C475.523,119.686,472.564,123.436,472.564,128.061z"/>
	<polygon fill="#262626" points="429.578,75.975 537.951,104.359 537.951,327.062 541.177,326.911 541.177,100.488 429.578,72.104 	
		"/>
</g>
</svg>
