<?xml version="1.0" encoding="utf-8"?>
<!-- Generator: Adobe Illustrator 16.0.0, SVG Export Plug-In . SVG Version: 6.00 Build 0)  -->
<!DOCTYPE svg PUBLIC "-//W3C//DTD SVG 1.1//EN" "http://www.w3.org/Graphics/SVG/1.1/DTD/svg11.dtd">
<svg version="1.1" id="Layer_1" xmlns="http://www.w3.org/2000/svg" xmlns:xlink="http://www.w3.org/1999/xlink" x="0px" y="0px"
	 width="206.487px" height="219.571px" viewBox="0 0 206.487 219.571" enable-background="new 0 0 206.487 219.571"
	 xml:space="preserve">
<g>
	<g>
		<g>
			<line fill="#58595B" x1="137.083" y1="0" x2="102.399" y2="62.662"/>
			<path fill="#414042" d="M137.258,0.097c0,0-1.959,4.032-4.971,10.039c-1.499,3.008-3.241,6.52-5.164,10.252
				c-1.909,3.74-3.946,7.729-5.982,11.718c-1.004,2.002-2.008,4.005-2.995,5.977c-0.97,1.981-1.949,3.918-2.95,5.762
				c-1.02,1.834-2.032,3.592-3.06,5.221c-0.509,0.818-1.003,1.613-1.481,2.383c-0.496,0.76-0.976,1.493-1.437,2.198
				c-0.92,1.41-1.809,2.676-2.596,3.8c-0.796,1.118-1.504,2.085-2.105,2.871c-1.196,1.576-1.943,2.442-1.943,2.442l-0.35-0.193
				c0,0,0.337-1.093,1.038-2.943c0.346-0.928,0.79-2.041,1.314-3.31c0.534-1.263,1.136-2.689,1.842-4.217
				c0.353-0.764,0.72-1.56,1.1-2.384c0.398-0.814,0.81-1.655,1.232-2.52c0.836-1.736,1.788-3.527,2.8-5.365
				c1.031-1.828,2.152-3.685,3.317-5.559c1.146-1.884,2.31-3.797,3.474-5.711c2.299-3.844,4.598-7.688,6.754-11.291
				c2.142-3.611,4.193-6.952,5.945-9.819c3.491-5.742,5.868-9.542,5.868-9.542L137.258,0.097z"/>
		</g>
		<path fill="#BE6E3E" d="M206.713,82.944l-1.024,136.627l-195.258-1.465C4.623,218.062-0.042,213.326,0,207.518L0.946,81.401
			c0.045-5.808,4.781-10.475,10.588-10.431l184.749,1.386C202.089,72.399,206.755,77.137,206.713,82.944z"/>
		<path fill="#FFFFFF" d="M202.255,87.336l-0.958,127.773l-186.407-1.397c-5.809-0.042-10.476-4.779-10.433-10.587L5.338,85.86
			c0.044-5.809,4.781-10.474,10.59-10.432l175.896,1.32C197.633,76.792,202.299,81.53,202.255,87.336z"/>
		<path fill="#1C75BC" d="M199.75,89.531l-0.924,123.35l-181.984-1.365c-3.262-0.024-6.172-1.528-8.079-3.888l188.438-125.03
			C198.814,84.457,199.769,86.886,199.75,89.531z"/>
		<path fill="#00AEEF" d="M197.201,82.598L8.762,207.627c-1.492-1.826-2.369-4.167-2.35-6.7L7.257,88.088
			c0.042-5.809,4.781-10.476,10.589-10.433l171.473,1.286C192.471,78.965,195.293,80.38,197.201,82.598z"/>
		<path d="M164.576,95.732l-0.748,99.91c-0.043,5.71-4.647,10.303-10.285,10.261l-130.038-0.976
			c-5.636-0.042-10.173-4.704-10.13-10.412l0.75-99.91c0.041-5.712,4.648-10.304,10.284-10.261l130.039,0.974
			C160.083,85.36,164.62,90.024,164.576,95.732z"/>
		<path fill="#414042" d="M162.349,97.547l-0.72,96.246c-0.041,5.498-4.533,9.924-10.032,9.881L25.482,202.73
			c-5.499-0.041-9.923-4.534-9.88-10.032l0.72-96.244c0.041-5.499,4.534-9.924,10.032-9.882l126.116,0.945
			C157.968,87.559,162.39,92.049,162.349,97.547z"/>
		<circle fill="none" stroke="#000000" stroke-miterlimit="10" cx="182.813" cy="98.254" r="10.509"/>
		<path fill="#C4C6C8" d="M190.072,94.868l-13.152,8.819c-1.338-1.437-2.144-3.379-2.129-5.492c0.035-4.437,3.647-7.993,8.082-7.959
			C186.081,90.257,188.821,92.148,190.072,94.868z"/>
		<path fill="#939598" d="M190.833,98.315c-0.033,4.433-3.644,7.992-8.08,7.959c-2.312-0.017-4.396-1.007-5.833-2.588l13.152-8.819
			C190.574,95.912,190.841,97.086,190.833,98.315z"/>
		<path fill="#C4C6C8" d="M189.882,120.312l-13.154,8.819c-1.338-1.438-2.143-3.38-2.127-5.494c0.034-4.435,3.644-7.993,8.081-7.959
			C185.891,115.702,188.63,117.591,189.882,120.312z"/>
		<path fill="#939598" d="M190.641,123.758c-0.033,4.438-3.644,7.994-8.081,7.96c-2.311-0.017-4.395-1.006-5.832-2.587l13.154-8.819
			C190.383,121.355,190.652,122.529,190.641,123.758z"/>
		<path fill="none" stroke="#000000" stroke-miterlimit="10" d="M193.13,123.777c-0.043,5.807-4.782,10.475-10.588,10.43
			c-5.804-0.043-10.475-4.782-10.431-10.588c0.043-5.804,4.783-10.473,10.589-10.431
			C188.505,113.231,193.175,117.972,193.13,123.777z"/>
		
			<line fill="#4C4C4D" stroke="#000000" stroke-miterlimit="10" stroke-dasharray="6,3" x1="175.805" y1="147.572" x2="175.381" y2="203.853"/>
		
			<line fill="#4C4C4D" stroke="#000000" stroke-miterlimit="10" stroke-dasharray="6,3" x1="179.123" y1="147.597" x2="178.701" y2="203.879"/>
		
			<line fill="#4C4C4D" stroke="#000000" stroke-miterlimit="10" stroke-dasharray="6,3" x1="182.443" y1="147.621" x2="182.02" y2="203.904"/>
		
			<line fill="#4C4C4D" stroke="#000000" stroke-miterlimit="10" stroke-dasharray="6,3" x1="185.761" y1="147.647" x2="185.339" y2="203.927"/>
		
			<line fill="#4C4C4D" stroke="#000000" stroke-miterlimit="10" stroke-dasharray="6,3" x1="189.081" y1="147.67" x2="188.659" y2="203.952"/>
		<path fill="#58595B" d="M120.315,71.786L84.36,71.517c0.075-9.924,8.178-17.917,18.112-17.843
			C112.396,53.75,120.389,61.865,120.315,71.786z"/>
	</g>
	<g>
		<g>
			<polygon fill="#FFFFFF" points="107.37,101.015 87.424,119.663 87.657,100.771 			"/>
			<polygon fill="#2E3192" points="107.37,101.015 107.137,119.906 87.424,119.663 			"/>
			<polygon fill="#FFFFFF" points="107.116,121.548 87.171,140.198 87.403,121.306 			"/>
			<polygon fill="#2E3192" points="107.116,121.548 106.884,140.44 87.171,140.198 			"/>
			<polygon fill="#FFFFFF" points="128.471,121.812 108.528,140.46 108.759,121.569 			"/>
			<polygon fill="#2E3192" points="128.471,121.812 128.24,140.703 108.528,140.46 			"/>
			<polygon fill="#FFFFFF" points="85.761,121.287 65.815,139.934 66.047,121.044 			"/>
			<polygon fill="#2E3192" points="85.761,121.287 85.529,140.177 65.815,139.934 			"/>
		</g>
		
			<text transform="matrix(0.9999 0.0123 -0.0123 0.9999 78.2104 162.8237)" fill="#FFFFFF" font-family="'Impact'" font-size="14.8959">START</text>
		<polygon fill="#00AEEF" points="106.278,179.659 89.982,188.72 90.211,170.197 		"/>
	</g>
</g>
</svg>
